<svg width="183" height="197" viewBox="0 0 183 197" fill="none" xmlns="http://www.w3.org/2000/svg">
<mask id="mask0_4402_3154" style="mask-type:luminance" maskUnits="userSpaceOnUse" x="0" y="0" width="183" height="197">
<path d="M0.142822 0H182.261V196.127H0.142822V0Z" fill="white"/>
</mask>
<g mask="url(#mask0_4402_3154)">
<mask id="mask1_4402_3154" style="mask-type:luminance" maskUnits="userSpaceOnUse" x="-483" y="-209" width="732" height="753">
<path d="M-169.471 -208.659L248.695 63.7798L-63.883 543.564L-482.049 271.125L-169.471 -208.659Z" fill="white"/>
</mask>
<g mask="url(#mask1_4402_3154)">
<mask id="mask2_4402_3154" style="mask-type:luminance" maskUnits="userSpaceOnUse" x="-483" y="-209" width="732" height="753">
<path d="M-169.471 -208.659L248.695 63.7798L-63.883 543.564L-482.049 271.125L-169.471 -208.659Z" fill="white"/>
</mask>
<g mask="url(#mask2_4402_3154)">
<path d="M178.814 159.299C174.682 153.088 169.21 143.84 163.382 133.607L168.827 125.261C169.976 123.483 169.483 121.13 167.705 120.008L167.677 119.98C165.926 118.831 163.573 119.324 162.424 121.075L159.168 126.082C153.696 116.287 148.114 106.053 143.298 96.9968L148.47 89.062C149.619 87.3108 149.099 84.9577 147.348 83.8086L147.32 83.7812C145.569 82.6594 143.216 83.1519 142.067 84.903L139.194 89.3082C132.956 77.5701 128.633 69.2249 128.605 69.1701L152.711 32.15C156.623 26.1304 158.703 20.4119 159.797 15.5689C160.153 13.8998 160.29 11.8751 160.317 9.8777C160.372 6.23862 156.541 3.74871 153.231 5.33568C151.534 6.12917 149.783 7.05945 148.442 8.04447C144.475 10.9722 140.07 15.2132 136.102 21.3148L111.942 58.3623C111.86 58.3623 102.502 57.7604 89.2045 56.7754L92.0775 52.3702C93.2267 50.619 92.7342 48.2659 90.983 47.1167L90.9557 47.0894C89.1772 45.9676 86.8241 46.4601 85.6749 48.2112L80.5036 56.146C70.2704 55.3526 58.6691 54.4223 47.5056 53.3825L50.7616 48.3754C51.9108 46.6242 51.3909 44.2711 49.6398 43.122L49.6124 43.0946C47.8613 41.9454 45.5082 42.4379 44.359 44.2164L38.914 52.5617C27.2307 51.3851 16.5323 50.0991 9.22678 48.8132C6.84633 48.4027 1.26457 49.4698 0.799431 51.8229C0.443733 53.6014 4.57532 55.7356 6.27174 56.3102C23.0717 61.8646 55.7961 72.6724 71.4743 80.361C76.372 82.7415 89.8612 92.318 89.9159 92.3727C89.9159 92.3727 57.3831 148.902 56.699 150.625L27.7232 148.737C25.0417 148.573 22.4698 149.668 20.746 151.693C26.5193 154.264 44.8241 162.446 51.3635 165.455C51.1173 166.221 50.871 166.96 50.6521 167.672C50.2964 168.821 49.8039 169.806 49.503 170.627C49.1746 171.448 49.1199 172.049 49.6398 172.378C50.1323 172.706 50.6521 172.35 51.2815 171.749C51.9108 171.147 52.6495 170.271 53.5251 169.478C54.0997 169.012 54.7016 168.465 55.331 167.891C60.2013 172.186 74.5114 185.429 79.6827 190.218C80.613 187.974 80.5309 185.429 79.4365 183.186L66.5765 157.137C67.9173 155.797 106.552 103.153 106.552 103.153C106.634 103.208 120.834 111.663 124.993 115.165C138.346 126.41 161.439 151.993 173.341 165.1C174.545 166.413 178.157 169.341 179.634 168.301C181.44 166.851 180.127 161.296 178.814 159.299Z" fill="#946A49"/>
</g>
</g>
</g>
</svg>
