<?xml version="1.0" encoding="UTF-8"?>
<svg id="Layer_2" data-name="Layer 2" xmlns="http://www.w3.org/2000/svg" viewBox="0 0 1506.39 1003.71">
  <defs>
    <style>
      .cls-1 {
        fill: #946a49;
      }

      .cls-2 {
        fill: #ede4e2;
      }
    </style>
  </defs>
  <g id="_ÎÓÈ_1" data-name="—ÎÓÈ_1">
    <g>
      <path class="cls-2" d="M22.41,995.11c-.1.06-.2.12-.3.18-4.91,2.65-9.84,5.26-14.78,7.85-2.45,1.28-5.47.33-6.75-2.11-1.28-2.45-.36-5.47,2.11-6.75,4.91-2.57,9.8-5.16,14.67-7.79,2.43-1.31,5.47-.4,6.78,2.03,1.25,2.33.47,5.21-1.73,6.6Z"/>
      <path class="cls-2" d="M1083.62,462.08c-2.6,1.64-5.31,3.2-8.05,4.62-2.45,1.28-5.47.32-6.75-2.13-1.28-2.45-.33-5.5,2.13-6.75,9.49-4.94,18.12-11.35,25.16-18.71,1.92-2.01,5.08-2.07,7.07-.16,2,1.91,2.07,5.08.16,7.07-5.75,6.02-12.39,11.42-19.72,16.05ZM1044.71,477.25c-.52.33-1.11.56-1.75.68-11.66,2.18-23.28,2.55-34.55,1.11-2.74-.35-4.68-2.86-4.33-5.6.35-2.74,2.85-4.68,5.6-4.33,10.23,1.31,20.81.96,31.44-1.02,2.72-.51,5.33,1.28,5.84,4,.39,2.08-.57,4.09-2.25,5.15ZM1120.38,419.19c-1.34.84-3.05,1.04-4.61.38-2.55-1.07-3.74-4-2.67-6.55,4.01-9.54,6.53-19.83,7.48-30.56.25-2.75,2.67-4.78,5.43-4.54,2.75.24,4.79,2.67,4.54,5.43-1.04,11.76-3.81,23.05-8.22,33.55-.41.98-1.1,1.76-1.94,2.29ZM980.34,468.32c-1.49.94-3.43,1.06-5.09.15-9.09-5-17.02-11.53-23.56-19.41-.97-1.17-1.91-2.36-2.81-3.56-1.66-2.21-1.21-5.35,1-7,2.17-1.64,5.34-1.21,7,1,.81,1.08,1.64,2.13,2.5,3.17,5.74,6.91,12.7,12.64,20.69,17.03,2.42,1.33,3.3,4.37,1.97,6.79-.42.77-1.02,1.38-1.71,1.82ZM1126.6,354.14c-.53.33-1.12.57-1.77.69-2.72.49-5.32-1.31-5.82-4.03-1.88-10.32-5.04-20.56-9.42-30.46-1.12-2.53.03-5.49,2.55-6.6,2.53-1.12,5.48.03,6.6,2.55,4.69,10.62,8.1,21.63,10.11,32.72.38,2.07-.58,4.07-2.25,5.13ZM447.62,736.3c-2.29,1.45-5.33.8-6.84-1.46-1.53-2.3-.9-5.41,1.4-6.93,8.68-5.76,17.61-12.21,26.55-19.18,2.17-1.69,5.32-1.31,7.02.87,1.7,2.18,1.31,5.32-.87,7.02-9.14,7.12-18.28,13.72-27.17,19.62-.03.02-.07.04-.1.06ZM419.22,753.33c-.1.07-.21.13-.32.18-10.19,5.44-20.48,10.21-30.58,14.16-2.57,1.01-5.48-.26-6.48-2.83-1.01-2.57.27-5.47,2.83-6.48,9.74-3.81,19.67-8.41,29.52-13.67,2.44-1.3,5.47-.38,6.77,2.06,1.24,2.33.46,5.2-1.74,6.58ZM108.1,944.75c-2.33,1.47-5.4.78-6.89-1.54-1.49-2.33-.81-5.42,1.52-6.91,9.25-5.91,18.54-12,27.6-18.11,2.25-1.5,5.4-.94,6.94,1.35,1.54,2.29.94,5.4-1.35,6.94-9.13,6.15-18.49,12.29-27.81,18.25h-.02ZM79.95,962.24s-.06.03-.08.05c-9.47,5.72-19.11,11.39-28.68,16.86-2.4,1.37-5.45.54-6.82-1.86-1.37-2.4-.56-5.44,1.86-6.82,9.49-5.42,19.07-11.05,28.46-16.73,2.36-1.43,5.44-.67,6.87,1.69,1.41,2.34.69,5.37-1.61,6.82ZM499.98,695.74c-2.04,1.29-4.78.94-6.42-.93-1.82-2.07-1.62-5.24.46-7.06,4.28-3.76,8.67-7.72,13.05-11.76,3.72-3.43,7.48-6.97,11.19-10.52,2-1.92,5.16-1.84,7.07.15,1.91,2,1.84,5.16-.15,7.07-3.75,3.59-7.56,7.17-11.32,10.64-4.44,4.1-8.89,8.11-13.23,11.93-.2.18-.42.34-.64.48ZM941.02,417.16c-.39.25-.82.44-1.28.58-2.65.77-5.43-.76-6.19-3.42-3.1-10.74-4.59-22.24-4.43-34.2.04-2.76,2.31-4.97,5.07-4.94,2.76.04,4.97,2.31,4.94,5.07-.14,10.97,1.22,21.5,4.04,31.29.63,2.19-.3,4.46-2.13,5.62ZM163.05,907.72c-2.23,1.41-5.2.84-6.74-1.34-1.6-2.25-1.07-5.38,1.18-6.97,8.97-6.37,17.94-12.92,26.67-19.45,2.24-1.68,5.35-1.2,7,1.01,1.66,2.21,1.2,5.35-1.01,7-8.8,6.59-17.84,13.18-26.88,19.6-.08.06-.15.11-.23.16ZM216.11,868.02c-2.14,1.35-4.99.89-6.59-1.14-1.71-2.17-1.34-5.31.84-7.02,5.94-4.68,11.91-9.46,17.75-14.23,2.64-2.15,5.27-4.32,7.9-6.52,2.12-1.76,5.28-1.49,7.05.63,1.77,2.12,1.49,5.28-.63,7.05-2.66,2.22-5.32,4.42-7.99,6.59-5.89,4.8-11.91,9.62-17.89,14.33-.14.11-.28.21-.43.3ZM357.59,777.22c-.45.29-.96.5-1.51.63-5.51,1.32-11.1,2.43-16.63,3.32-5.53.89-11.22,1.52-16.92,1.89-2.76.18-5.14-1.91-5.31-4.67-.18-2.76,1.91-5.14,4.67-5.31,5.39-.35,10.76-.95,15.98-1.78,5.28-.85,10.62-1.91,15.89-3.17,2.69-.64,5.39,1.01,6.03,3.7.51,2.14-.43,4.28-2.19,5.4ZM547.86,649.95c-1.91,1.2-4.46,1-6.15-.64-1.98-1.92-2.04-5.09-.11-7.07,7.6-7.85,15.15-15.96,22.46-24.1,1.86-2.07,5.01-2.23,7.06-.39,2.06,1.85,2.23,5.01.39,7.06-7.39,8.24-15.03,16.45-22.72,24.39-.28.29-.6.55-.93.75ZM266.79,825.33c-2,1.26-4.67.96-6.33-.83-1.88-2.02-1.76-5.19.26-7.07,8.56-7.95,16.14-15.52,23.18-23.14,1.87-2.03,5.04-2.16,7.07-.28,2.03,1.87,2.16,5.04.28,7.07-7.21,7.82-14.97,15.56-23.73,23.69-.23.22-.48.41-.74.57ZM1100.15,294c-2.19,1.38-5.1.87-6.67-1.24-6.48-8.67-13.86-16.45-21.93-23.15-2.13-1.76-2.42-4.92-.66-7.04,1.75-2.13,4.91-2.42,7.04-.66,8.68,7.19,16.6,15.56,23.55,24.86,1.65,2.21,1.2,5.35-1.01,7-.11.08-.22.16-.33.23ZM592.1,600.61c-1.78,1.12-4.16,1.03-5.87-.38-2.12-1.76-2.42-4.92-.65-7.04,7.01-8.44,13.93-17.1,20.56-25.74,1.68-2.19,4.82-2.6,7.02-.92,2.19,1.68,2.6,4.82.92,7.01-6.71,8.74-13.71,17.5-20.8,26.04-.35.42-.74.76-1.18,1.04ZM311.45,776.45c-1.7,1.07-3.94,1.05-5.65-.21-2.22-1.65-2.68-4.78-1.04-7,6.7-9.03,12.59-18.21,17.5-27.27,1.31-2.43,4.35-3.33,6.78-2.02,2.43,1.32,3.33,4.35,2.01,6.78-5.13,9.48-11.28,19.05-18.26,28.47-.38.51-.84.93-1.34,1.25ZM291.78,781.42c-.93.59-2.07.87-3.25.74-11.33-1.32-22.53-3.66-33.29-6.95-2.64-.81-4.13-3.61-3.32-6.25.81-2.64,3.6-4.13,6.25-3.32,10.17,3.12,20.78,5.33,31.51,6.58,2.74.32,4.71,2.8,4.39,5.55-.18,1.56-1.07,2.87-2.3,3.65ZM632.48,548.07c-1.66,1.05-3.86,1.06-5.57-.15-2.25-1.6-2.78-4.72-1.19-6.97,2.36-3.33,4.69-6.66,7.01-10.02,3.77-5.47,7.56-11.1,11.57-17.2,1.52-2.31,4.62-2.95,6.93-1.43,2.31,1.52,2.95,4.62,1.43,6.93-4.05,6.16-7.88,11.85-11.69,17.38-2.34,3.4-4.7,6.78-7.09,10.14-.39.55-.87,1-1.41,1.34ZM941.39,351.67c-1.14.72-2.57.98-3.97.6-2.67-.72-4.25-3.46-3.53-6.13,1.77-6.56,4.01-13.01,6.67-19.17,1.81-4.19,3.85-8.42,6.06-12.57,1.3-2.44,4.33-3.36,6.77-2.06,2.44,1.3,3.36,4.33,2.06,6.77-2.08,3.91-4,7.89-5.7,11.83-2.47,5.72-4.56,11.7-6.2,17.8-.34,1.26-1.13,2.28-2.16,2.93ZM1454.94,19.61c-.45.29-.96.5-1.52.63-10.65,2.53-21.39,5.27-31.95,8.15-2.67.73-5.41-.85-6.14-3.51-.73-2.67.84-5.41,3.51-6.14,10.66-2.91,21.52-5.67,32.27-8.23,2.69-.64,5.38,1.02,6.02,3.71.51,2.13-.44,4.28-2.2,5.39ZM342.54,718.25c-1.22.77-2.77,1.01-4.24.52-2.62-.87-4.04-3.7-3.18-6.32,2.13-6.45,3.87-13.03,5.16-19.57.74-3.78,1.3-7.68,1.65-11.6.25-2.75,2.68-4.78,5.43-4.54,2.75.24,4.79,2.67,4.54,5.43-.38,4.27-.99,8.53-1.8,12.65-1.37,6.95-3.22,13.94-5.48,20.78-.38,1.14-1.13,2.06-2.08,2.66ZM669.04,492.8c-1.58,1-3.65,1.06-5.33,0-2.34-1.47-3.05-4.56-1.58-6.9,5.4-8.59,10.74-17.22,16.08-25.85l1.41-2.27c1.45-2.34,4.54-3.07,6.89-1.62,2.35,1.45,3.07,4.54,1.62,6.89l-1.41,2.27c-5.35,8.64-10.71,17.29-16.12,25.9-.41.66-.95,1.18-1.56,1.57ZM1391.01,37.04c-.37.23-.77.42-1.2.55-10.45,3.22-20.99,6.66-31.35,10.22-2.61.9-5.46-.49-6.36-3.1-.9-2.61.49-5.46,3.1-6.36,10.46-3.6,21.11-7.07,31.66-10.32,2.64-.81,5.44.67,6.25,3.31.68,2.21-.24,4.53-2.11,5.7ZM1049.58,252.16c-1.42.9-3.26,1.06-4.88.26-7.59-3.73-15.64-6.87-23.98-9.36-.79.69-1.57,1.38-2.36,2.08-2.05,1.82-5.23,1.64-7.06-.43-1.65-1.86-1.66-4.61-.14-6.47-.34-.92-.41-1.95-.15-2.97.69-2.68,3.42-4.29,6.09-3.6.37.09.74.19,1.11.29.36-.32.73-.63,1.09-.95,5.83-5.04,11.81-10.08,17.77-14.99,2.12-1.73,5.28-1.45,7.04.68,1.76,2.13,1.45,5.28-.68,7.04-4.64,3.82-9.29,7.72-13.87,11.63,6.74,2.29,13.27,4.98,19.53,8.05,2.48,1.22,3.5,4.21,2.28,6.7-.42.86-1.06,1.55-1.82,2.02ZM971.79,293.27c-1.73,1.09-4.02,1.05-5.73-.27-2.19-1.69-2.59-4.83-.9-7.02,6.46-8.38,13.74-16.66,22.23-25.34,1.92-1.97,5.1-2.01,7.07-.07,1.97,1.93,2.01,5.1.07,7.07-8.22,8.39-15.24,16.39-21.46,24.45-.37.48-.81.87-1.29,1.17ZM228.84,761.96c-1.48.93-3.4,1.06-5.05.17-10.3-5.55-19.76-12.09-28.13-19.44-2.08-1.82-2.28-4.98-.46-7.06,1.82-2.08,4.98-2.28,7.06-.46,7.8,6.85,16.64,12.96,26.27,18.15,2.43,1.31,3.34,4.35,2.03,6.78-.42.78-1.03,1.41-1.73,1.86ZM1328.35,58.59c-.28.17-.58.33-.9.45-10.22,3.89-20.52,8-30.62,12.23-2.55,1.07-5.48-.14-6.54-2.68-1.07-2.55.14-5.48,2.68-6.54,10.2-4.27,20.61-8.42,30.92-12.35,2.58-.98,5.47.31,6.45,2.9.86,2.26-.03,4.76-2,6.01ZM1267.21,84.15c-.19.12-.39.23-.6.32-9.93,4.53-19.95,9.3-29.77,14.18-2.47,1.23-5.48.22-6.7-2.26-1.23-2.47-.23-5.48,2.26-6.7,9.92-4.92,20.04-9.74,30.06-14.32,2.51-1.15,5.48-.04,6.63,2.47,1.05,2.3.21,4.99-1.88,6.3ZM704.08,436.54c-1.58,1-3.66,1.07-5.34,0-2.34-1.47-3.03-4.56-1.56-6.9,6.6-10.45,12.5-19.58,18.05-27.93,1.53-2.3,4.63-2.93,6.93-1.4,2.3,1.53,2.93,4.63,1.4,6.93-5.5,8.28-11.37,17.36-17.92,27.74-.41.65-.95,1.17-1.56,1.56ZM1068.86,203.49c-2.16,1.36-5.04.88-6.63-1.18-1.68-2.19-1.27-5.33.91-7.02,8.74-6.73,17.73-13.41,26.72-19.87,2.25-1.64,5.37-1.1,6.98,1.14,1.61,2.24,1.1,5.37-1.14,6.98-8.9,6.4-17.8,13.01-26.46,19.67-.13.1-.25.19-.39.27ZM1207.85,113.61c-.1.06-.2.12-.31.18-9.65,5.18-19.34,10.59-28.79,16.07-2.39,1.38-5.45.57-6.84-1.82-1.38-2.39-.59-5.38,1.82-6.84,9.55-5.53,19.33-10.99,29.08-16.23,2.43-1.31,5.47-.39,6.77,2.04,1.25,2.33.47,5.2-1.73,6.59ZM1122.68,164.83c-2.28,1.44-5.31.81-6.83-1.45-1.54-2.3-.92-5.4,1.37-6.94,9.19-6.15,18.57-12.21,27.97-18.08,2.34-1.46,5.43-.75,6.89,1.6,1.46,2.34.75,5.41-1.57,6.88l-.02.02c-9.3,5.8-18.6,11.81-27.69,17.9-.04.03-.08.05-.11.07ZM348.19,652.93c-.55.34-1.16.59-1.84.7-2.72.46-5.3-1.38-5.76-4.1-1.77-10.49-4.78-20.79-8.96-30.6-1.08-2.54.11-5.47,2.64-6.56,2.54-1.08,5.48.1,6.56,2.64,4.49,10.54,7.73,21.59,9.63,32.86.34,2.05-.61,4.02-2.26,5.06ZM985.86,235.53c-.87.55-1.91.84-3.01.76-10.55-.72-21.41-.56-32.28.48-2.75.26-5.19-1.75-5.46-4.5-.26-2.75,1.75-5.19,4.5-5.46,11.41-1.1,22.83-1.27,33.92-.5,2.76.19,4.84,2.58,4.65,5.33-.11,1.65-1.02,3.07-2.32,3.89ZM740.9,381.45c-1.68,1.06-3.89,1.06-5.6-.17-2.24-1.62-2.75-4.74-1.13-6.98l1.83-2.53c6.09-8.37,12.29-16.46,18.43-24.04,1.74-2.15,4.89-2.48,7.03-.74,2.15,1.74,2.48,4.89.74,7.03-6.03,7.46-12.12,15.41-18.12,23.64l-1.81,2.49c-.39.53-.86.97-1.38,1.3ZM179.79,718.39c-2.28,1.44-5.31.81-6.82-1.45-.63-.94-1.24-1.88-1.85-2.84-2.71-4.3-5.18-8.8-7.34-13.38-2.25-4.78-4.14-9.84-5.61-15.03-.75-2.66.8-5.42,3.45-6.18,2.66-.75,5.42.79,6.17,3.45,1.32,4.66,3.01,9.2,5.03,13.49,1.98,4.21,4.25,8.35,6.75,12.3.56.88,1.12,1.75,1.7,2.61,1.54,2.3.92,5.4-1.37,6.94-.04.03-.08.05-.12.08ZM782.66,330.03c-1.87,1.18-4.37,1.01-6.07-.57-2.02-1.88-2.14-5.04-.27-7.07,7.81-8.42,15.8-16.38,23.77-23.67,2.02-1.87,5.2-1.73,7.07.31,1.86,2.04,1.73,5.2-.31,7.07-7.76,7.1-15.56,14.87-23.18,23.09-.3.33-.64.6-1,.83ZM920.14,241.71c-.44.27-.92.49-1.44.62-10.45,2.65-20.77,6.1-30.69,10.27-2.55,1.07-5.48-.13-6.55-2.68-1.07-2.55.14-5.49,2.68-6.55,10.38-4.36,21.18-7.97,32.11-10.74,2.68-.68,5.4.94,6.08,3.62.55,2.15-.39,4.34-2.18,5.46ZM831.6,285.46c-2.18,1.38-5.09.87-6.67-1.23-1.66-2.21-1.21-5.35,1-7,6.56-4.92,13.28-9.56,19.96-13.77l.05-.03c2.65-1.67,5.35-3.31,8.02-4.88,2.38-1.4,5.45-.6,6.84,1.79,1.4,2.38.6,5.44-1.79,6.84-2.6,1.52-5.2,3.12-7.79,4.74-6.46,4.08-12.95,8.55-19.29,13.31-.11.08-.22.16-.34.23ZM322.29,592.62c-2.16,1.36-5.04.88-6.63-1.18-6.72-8.73-14.35-16.07-22.67-21.81-2.27-1.57-2.85-4.68-1.28-6.96,1.57-2.28,4.68-2.85,6.96-1.28,9.18,6.33,17.56,14.39,24.92,23.94,1.69,2.19,1.28,5.33-.91,7.02-.13.1-.26.19-.39.27ZM161.94,655.78c-.83.52-1.82.81-2.88.76-2.76-.12-4.9-2.45-4.79-5.21.48-11.4,2.59-22.79,6.28-33.86.87-2.62,3.71-4.04,6.33-3.16,2.62.87,4.04,3.71,3.16,6.33-3.39,10.18-5.34,20.65-5.78,31.11-.07,1.71-.99,3.18-2.33,4.02ZM268.37,556.49c-1.07.68-2.4.95-3.73.66-5.29-1.15-10.75-1.72-16.21-1.7-4.91.02-9.8.55-14.56,1.57-2.7.58-5.36-1.14-5.94-3.84-.58-2.7,1.14-5.36,3.84-5.94,5.43-1.17,11.03-1.77,16.63-1.79,6.19-.02,12.37.63,18.37,1.93,2.7.59,4.41,3.25,3.83,5.95-.3,1.37-1.12,2.48-2.22,3.17ZM182.67,593.71c-1.64,1.04-3.82,1.06-5.52-.12-2.27-1.57-2.84-4.69-1.27-6.96,6.87-9.94,14.96-18.33,24.04-24.94,2.19-1.63,5.36-1.14,6.99,1.1,1.63,2.23,1.13,5.36-1.1,6.99-8.17,5.95-15.47,13.54-21.7,22.55-.4.57-.89,1.04-1.44,1.38Z"/>
      <path class="cls-2" d="M1504.06,9.24c-.52.33-1.12.57-1.76.69-5.39,1-10.87,2.06-16.29,3.16-2.71.55-5.35-1.2-5.9-3.91-.55-2.71,1.2-5.34,3.91-5.9,5.47-1.11,11-2.18,16.45-3.19,2.72-.5,5.33,1.29,5.83,4.01.38,2.07-.57,4.08-2.25,5.14Z"/>
      <g>
        <path class="cls-1" d="M458.39,635.69c-36.56,0,0,44.03,0,44.03,0,0,36.56-44.03,0-44.03ZM458.39,663.54c-6.82,0-12.35-5.53-12.35-12.36s5.53-12.35,12.35-12.35,12.35,5.53,12.35,12.35-5.53,12.36-12.35,12.36Z"/>
        <path class="cls-1" d="M458.39,640.52c-5.9,0-10.67,4.77-10.67,10.67s4.77,10.67,10.67,10.67,10.67-4.78,10.67-10.67-4.78-10.67-10.67-10.67ZM458.39,660.13c-4.94,0-8.95-4.01-8.95-8.95s4.01-8.95,8.95-8.95,8.95,4.01,8.95,8.95-4.01,8.95-8.95,8.95Z"/>
        <path class="cls-1" d="M462.53,688.32c0,2.29-1.86,4.15-4.15,4.15s-4.15-1.86-4.15-4.15,1.86-4.15,4.15-4.15,4.15,1.86,4.15,4.15Z"/>
      </g>
      <g>
        <path class="cls-1" d="M980.04,396.77c-36.56,0,0,44.03,0,44.03,0,0,36.56-44.03,0-44.03ZM980.04,424.62c-6.82,0-12.35-5.53-12.35-12.36s5.53-12.35,12.35-12.35,12.35,5.53,12.35,12.35-5.53,12.36-12.35,12.36Z"/>
        <path class="cls-1" d="M980.04,401.6c-5.9,0-10.67,4.77-10.67,10.67s4.77,10.67,10.67,10.67,10.67-4.78,10.67-10.67-4.78-10.67-10.67-10.67ZM980.04,421.21c-4.94,0-8.95-4.01-8.95-8.95s4.01-8.95,8.95-8.95,8.95,4.01,8.95,8.95-4.01,8.95-8.95,8.95Z"/>
        <path class="cls-1" d="M984.19,449.4c0,2.29-1.86,4.15-4.15,4.15s-4.15-1.86-4.15-4.15,1.86-4.15,4.15-4.15,4.15,1.86,4.15,4.15Z"/>
      </g>
      <g>
        <path class="cls-1" d="M1269.54.19c-36.56,0,0,44.03,0,44.03,0,0,36.56-44.03,0-44.03ZM1269.54,28.04c-6.82,0-12.35-5.53-12.35-12.36s5.53-12.35,12.35-12.35,12.35,5.53,12.35,12.35-5.53,12.36-12.35,12.36Z"/>
        <path class="cls-1" d="M1269.54,5.01c-5.9,0-10.67,4.77-10.67,10.67s4.77,10.67,10.67,10.67,10.67-4.78,10.67-10.67-4.78-10.67-10.67-10.67ZM1269.54,24.63c-4.94,0-8.95-4.01-8.95-8.95s4.01-8.95,8.95-8.95,8.95,4.01,8.95,8.95-4.01,8.95-8.95,8.95Z"/>
        <path class="cls-1" d="M1273.69,52.81c0,2.29-1.86,4.15-4.15,4.15s-4.15-1.86-4.15-4.15,1.86-4.15,4.15-4.15,4.15,1.86,4.15,4.15Z"/>
      </g>
    </g>
  </g>
</svg>