<?xml version="1.0" encoding="UTF-8"?>
<svg id="Layer_2" data-name="Layer 2" xmlns="http://www.w3.org/2000/svg" viewBox="0 0 1427.23 1139.82">
  <defs>
    <style>
      .cls-1 {
        fill: #946a49;
      }

      .cls-2 {
        fill: #ede4e2;
      }
    </style>
  </defs>
  <g id="_ÎÓÈ_1" data-name="—ÎÓÈ_1">
    <g>
      <g>
        <path class="cls-1" d="M411.5,131c-46.26,0,0,55.7,0,55.7,0,0,46.25-55.7,0-55.7ZM411.5,166.24c-8.63,0-15.63-7-15.63-15.63s6.99-15.63,15.63-15.63,15.63,7,15.63,15.63-7,15.63-15.63,15.63Z"/>
        <path class="cls-1" d="M411.5,137.11c-7.46,0-13.5,6.04-13.5,13.49s6.04,13.5,13.5,13.5,13.49-6.04,13.49-13.5-6.04-13.49-13.49-13.49ZM411.5,161.92c-6.25,0-11.33-5.07-11.33-11.32s5.07-11.32,11.33-11.32,11.33,5.07,11.33,11.32-5.07,11.32-11.33,11.32Z"/>
        <path class="cls-1" d="M416.75,197.58c0,2.9-2.35,5.25-5.25,5.25s-5.25-2.35-5.25-5.25,2.35-5.25,5.25-5.25,5.25,2.35,5.25,5.25Z"/>
      </g>
      <g>
        <path class="cls-1" d="M756.47,416.16c-46.26,0,0,55.7,0,55.7,0,0,46.25-55.7,0-55.7ZM756.47,451.4c-8.63,0-15.63-7-15.63-15.63s6.99-15.63,15.63-15.63,15.63,7,15.63,15.63-7,15.63-15.63,15.63Z"/>
        <path class="cls-1" d="M756.47,422.27c-7.46,0-13.5,6.04-13.5,13.49s6.04,13.5,13.5,13.5,13.49-6.04,13.49-13.5-6.04-13.49-13.49-13.49ZM756.47,447.09c-6.25,0-11.33-5.07-11.33-11.32s5.07-11.32,11.33-11.32,11.33,5.07,11.33,11.32-5.07,11.32-11.33,11.32Z"/>
        <path class="cls-1" d="M761.72,482.74c0,2.9-2.35,5.25-5.25,5.25s-5.25-2.35-5.25-5.25,2.35-5.25,5.25-5.25,5.25,2.35,5.25,5.25Z"/>
      </g>
      <g>
        <path class="cls-1" d="M1250.07,953.56c-46.26,0,0,55.7,0,55.7,0,0,46.25-55.7,0-55.7ZM1250.07,988.8c-8.63,0-15.63-7-15.63-15.63s6.99-15.63,15.63-15.63,15.63,7,15.63,15.63-7,15.63-15.63,15.63Z"/>
        <path class="cls-1" d="M1250.07,959.67c-7.46,0-13.5,6.04-13.5,13.49s6.04,13.5,13.5,13.5,13.49-6.04,13.49-13.5-6.04-13.49-13.49-13.49ZM1250.07,984.49c-6.25,0-11.33-5.07-11.33-11.32s5.07-11.32,11.33-11.32,11.33,5.07,11.33,11.32-5.07,11.32-11.33,11.32Z"/>
        <path class="cls-1" d="M1255.32,1020.14c0,2.9-2.35,5.25-5.25,5.25s-5.25-2.35-5.25-5.25,2.35-5.25,5.25-5.25,5.25,2.35,5.25,5.25Z"/>
      </g>
      <g>
        <path class="cls-2" d="M6.97,25.63c-.77-.58-1.38-1.41-1.7-2.41C3.52,17.8,1.81,12.28.21,6.82-.59,4.11.97,1.18,3.68.27c2.71-.91,5.56.55,6.35,3.26,1.58,5.38,3.26,10.81,4.98,16.15.87,2.68-.61,5.66-3.3,6.63-1.69.61-3.45.3-4.74-.68Z"/>
        <path class="cls-2" d="M238.7,352.47l-.02-.02c-2.71-2.07-5.4-4.17-8.07-6.29-6.17-4.89-12.35-9.97-18.37-15.09-2.12-1.81-2.33-5.07-.46-7.28,1.87-2.21,5.14-2.5,7.23-.74,5.93,5.05,12.02,10.05,18.1,14.87,2.62,2.08,5.27,4.14,7.94,6.18,2.21,1.69,2.58,4.93.82,7.23-1.75,2.3-4.96,2.79-7.17,1.12ZM266.15,372.09c-2.11-1.6-2.59-4.65-1.04-6.97,1.61-2.41,4.8-3.11,7.12-1.57,9.62,6.37,19.22,12.16,28.54,17.22,2.46,1.33,3.3,4.46,1.89,6.99-1.41,2.53-4.54,3.5-6.99,2.17-9.57-5.2-19.42-11.14-29.27-17.66-.09-.06-.17-.12-.25-.18ZM519.22,559.96h0c-9.01-6.85-17.92-14.04-26.48-21.37-2.12-1.81-2.31-5.07-.44-7.28,1.88-2.21,5.16-2.52,7.23-.72,8.42,7.21,17.18,14.28,26.04,21.01,2.22,1.68,2.6,4.92.84,7.23-1.75,2.31-4.96,2.81-7.18,1.13ZM187.32,308.74c-.14-.11-.28-.22-.4-.34-8.2-7.73-16.34-15.77-24.17-23.92-1.93-2.01-1.83-5.29.23-7.32,2.06-2.03,5.3-2.05,7.24-.04,7.72,8.03,15.74,15.96,23.83,23.58,2.03,1.91,2.08,5.18.11,7.31-1.84,1.99-4.8,2.27-6.84.73ZM546.67,579.58c-2.12-1.61-2.59-4.68-1.02-7,1.63-2.4,4.82-3.08,7.13-1.53,9.22,6.19,18.75,12.19,28.32,17.84,2.4,1.42,3.14,4.58,1.64,7.06-1.49,2.48-4.65,3.35-7.05,1.93-9.73-5.74-19.42-11.85-28.8-18.14-.08-.05-.15-.11-.23-.16ZM467.99,516.07c-.15-.12-.3-.25-.45-.38-8.16-7.87-16.16-16.08-23.79-24.38-1.89-2.06-1.71-5.33.4-7.32,2.11-1.99,5.35-1.92,7.23.13,7.5,8.16,15.36,16.23,23.38,23.96,2.01,1.94,2.02,5.21.02,7.31-1.85,1.95-4.78,2.21-6.79.68ZM325.56,404.04c-1.79-1.36-2.48-3.85-1.52-6.09,1.14-2.66,4.16-3.96,6.75-2.91,10.57,4.3,21.17,7.79,31.5,10.39,2.71.68,4.29,3.49,3.51,6.26-.78,2.78-3.61,4.47-6.33,3.79-10.77-2.71-21.81-6.35-32.8-10.81-.4-.16-.78-.38-1.11-.63ZM604.8,613.87c-1.93-1.46-2.54-4.2-1.32-6.49,1.36-2.56,4.47-3.6,6.95-2.32,9.92,5.09,20.09,9.95,30.24,14.42,2.56,1.13,3.64,4.17,2.43,6.8-1.21,2.63-4.26,3.84-6.82,2.72-10.33-4.55-20.68-9.49-30.77-14.67-.26-.13-.5-.28-.72-.45ZM140.51,260.07c-.26-.2-.51-.43-.73-.69-7.43-8.52-14.74-17.34-21.73-26.21-1.73-2.19-1.32-5.46.92-7.29,2.24-1.83,5.45-1.54,7.18.65,6.9,8.74,14.11,17.44,21.43,25.84,1.83,2.11,1.58,5.38-.58,7.31-1.89,1.7-4.61,1.8-6.48.38ZM422.33,466.31c-.31-.23-.59-.51-.85-.82-2.97-3.67-5.94-7.43-8.81-11.17-4.15-5.41-8.12-10.83-11.8-16.1-1.6-2.29-1.01-5.54,1.32-7.24,2.33-1.7,5.52-1.23,7.12,1.07,3.6,5.15,7.48,10.45,11.54,15.74,2.82,3.68,5.73,7.37,8.65,10.97,1.76,2.17,1.39,5.44-.83,7.3-1.89,1.59-4.52,1.64-6.35.26ZM666.66,641.14c-1.75-1.32-2.45-3.73-1.58-5.95,1.06-2.69,4.05-4.08,6.67-3.11,10.48,3.89,21.19,7.49,31.82,10.71,2.68.81,4.12,3.69,3.22,6.43-.9,2.74-3.81,4.3-6.49,3.49-10.82-3.27-21.72-6.94-32.39-10.9-.46-.17-.88-.4-1.25-.68ZM98.63,206.98c-.39-.29-.73-.65-1.03-1.06-6.57-9.23-13-18.74-19.1-28.27-1.51-2.36-.79-5.58,1.6-7.19,2.39-1.62,5.55-1.02,7.06,1.34,6.01,9.39,12.35,18.77,18.83,27.87,1.62,2.28,1.06,5.52-1.26,7.25-1.89,1.41-4.37,1.37-6.1.06ZM391.25,420.21c-1.35-1.02-2.13-2.71-1.93-4.57.31-2.85,2.84-4.99,5.65-4.78,11,.82,22.14.47,33.12-1.03,2.82-.38,5.32,1.6,5.59,4.43.27,2.83-1.78,5.44-4.6,5.82-11.69,1.59-23.55,1.96-35.25,1.09-.98-.07-1.87-.42-2.6-.97ZM383.88,410.61c-.52-.4-.97-.9-1.32-1.52-5.9-10.58-10.91-21.12-14.89-31.31-1.02-2.62.28-5.67,2.92-6.8,2.63-1.13,5.6.08,6.63,2.7,3.81,9.77,8.63,19.89,14.31,30.08,1.37,2.45.47,5.63-2.01,7.1-1.86,1.1-4.07.94-5.64-.25ZM731.52,660.75c-1.56-1.18-2.33-3.26-1.78-5.35.74-2.78,3.55-4.52,6.28-3.88,5.21,1.22,10.5,2.38,15.72,3.44,5.72,1.16,11.54,2.24,17.29,3.2,2.77.47,4.56,3.13,3.99,5.95-.56,2.82-3.27,4.73-6.04,4.26-5.86-.98-11.79-2.08-17.62-3.27-5.32-1.08-10.71-2.26-16.01-3.51-.69-.16-1.3-.46-1.83-.86ZM62.09,149.9c-.51-.39-.95-.88-1.29-1.47-5.65-9.87-11.11-20-16.24-30.11-1.27-2.5-.25-5.65,2.28-7.03,2.53-1.38,5.61-.46,6.87,2.04,5.05,9.96,10.44,19.94,16,29.67,1.39,2.43.52,5.62-1.94,7.12-1.86,1.13-4.1.98-5.69-.22ZM359.73,347.13c-.94-.71-1.63-1.77-1.87-3.04-2.27-12.07-3.09-24.04-2.44-35.55.16-2.86,2.58-5.13,5.4-5.07,2.82.05,4.98,2.42,4.82,5.27-.6,10.68.17,21.81,2.28,33.06.52,2.79-1.31,5.56-4.09,6.19-1.51.35-2.99-.01-4.11-.86ZM798.61,672.02c-1.38-1.05-2.17-2.81-1.91-4.71.39-2.84,2.98-4.92,5.78-4.63,11.16,1.14,22.51,1.94,33.73,2.37,2.82.11,4.93,2.51,4.72,5.37-.21,2.86-2.67,5.08-5.49,4.98-11.44-.44-23-1.25-34.37-2.41-.93-.1-1.77-.44-2.46-.96ZM31.37,89.3c-.64-.48-1.16-1.13-1.51-1.92-4.64-10.44-9.06-21.11-13.12-31.72-1.01-2.63.32-5.67,2.96-6.79,2.64-1.12,5.6.1,6.61,2.74,4,10.44,8.35,20.95,12.92,31.24,1.14,2.57-.03,5.67-2.62,6.92-1.79.87-3.8.62-5.24-.47ZM458.89,410.81c-.76-.58-1.36-1.39-1.69-2.37-.89-2.68.57-5.66,3.25-6.66,10.81-4.02,20.76-9.21,29.58-15.43,2.36-1.66,5.53-1.12,7.09,1.2,1.56,2.32.91,5.56-1.45,7.22-9.57,6.75-20.34,12.37-32.01,16.71-1.69.63-3.47.32-4.78-.67ZM866.88,674.61c-1.21-.91-1.98-2.38-1.96-4.05.03-2.86,2.35-5.23,5.18-5.31,11.27-.29,22.68-.95,33.92-1.97,2.82-.25,5.23,1.85,5.38,4.69.15,2.85-2.02,5.36-4.85,5.62-11.45,1.03-23.08,1.71-34.57,2-1.17.03-2.25-.34-3.1-.99ZM365.13,279.02c-1.77-1.34-2.47-3.79-1.55-6.02,3.75-9.11,8.64-17.69,14.54-25.49,1.5-1.98,3.07-3.91,4.66-5.75,1.9-2.19,5.1-2.49,7.23-.64,2.1,1.84,2.26,5.1.36,7.29-1.44,1.66-2.85,3.4-4.21,5.19-5.33,7.05-9.76,14.81-13.16,23.06-1.1,2.67-4.1,4.02-6.71,3.01-.43-.17-.82-.39-1.18-.65ZM514.8,370.52c-2.21-1.67-2.61-4.88-.88-7.2,4.51-6.05,8.26-12.59,11.15-19.44,1.34-3.16,2.47-6.5,3.36-9.91.73-2.79,3.54-4.53,6.27-3.9,2.73.63,4.35,3.4,3.63,6.19-1.02,3.91-2.32,7.73-3.85,11.37-3.23,7.65-7.42,14.95-12.45,21.7-1.73,2.32-4.95,2.86-7.18,1.2l-.03-.02ZM935.24,668.43c-1.03-.78-1.76-1.97-1.92-3.39-.33-2.82,1.68-5.47,4.49-5.91,11.21-1.75,22.49-3.89,33.54-6.36,2.78-.62,5.45,1.14,5.96,3.92.51,2.79-1.33,5.55-4.11,6.18-11.26,2.52-22.77,4.7-34.2,6.48-1.4.22-2.73-.15-3.76-.93ZM410.52,227.47c-.59-.45-1.09-1.04-1.44-1.75-1.23-2.52-.17-5.66,2.37-7,11.24-5.93,23.1-9.19,35.27-9.68,2.83-.12,5.13,2.1,5.13,4.96s-2.28,5.26-5.1,5.38c-10.61.43-20.99,3.29-30.83,8.48-1.82.96-3.91.74-5.4-.39ZM532.26,304.93c-1.03-.78-1.75-1.96-1.92-3.36-1.3-10.7-4.33-21.2-8.99-31.23-1.19-2.55-.07-5.66,2.5-6.96,2.56-1.3,5.61-.28,6.79,2.27,5.11,10.98,8.43,22.52,9.86,34.28.34,2.82-1.65,5.48-4.46,5.93-1.41.23-2.75-.14-3.79-.92ZM1002.57,653.35c-.86-.65-1.5-1.58-1.79-2.72-.7-2.74.96-5.62,3.7-6.43,10.96-3.23,21.9-6.87,32.54-10.81,2.68-1,5.58.37,6.46,3.05.89,2.68-.57,5.66-3.26,6.65-10.86,4.02-22.04,7.74-33.22,11.03-1.6.47-3.22.13-4.43-.78ZM476.69,224.67c-1.84-1.39-2.5-3.96-1.46-6.23,1.21-2.62,4.27-3.84,6.82-2.71,10.49,4.64,20.35,11.69,28.83,20.63,1.92,2.02,1.79,5.3-.28,7.32-2.08,2.02-5.31,2.01-7.24-.01-7.6-8.01-16.39-14.31-25.71-18.43-.35-.16-.68-.35-.97-.57ZM1067.58,629.24c-.67-.51-1.22-1.2-1.57-2.04-1.07-2.6.18-5.67,2.79-6.85,10.46-4.73,20.84-9.88,30.84-15.3,2.53-1.37,5.61-.45,6.87,2.06,1.26,2.51.23,5.65-2.3,7.02-10.22,5.54-20.83,10.8-31.53,15.64-1.77.8-3.71.53-5.11-.53ZM1128.8,596.04c-.48-.36-.89-.82-1.23-1.36-1.45-2.4-.66-5.6,1.76-7.16,9.77-6.28,19.27-12.95,28.24-19.82,2.29-1.76,5.5-1.35,7.15.9,1.65,2.25,1.14,5.51-1.15,7.26-9.2,7.06-18.95,13.9-28.97,20.34-1.87,1.2-4.18,1.07-5.8-.15ZM1184.21,553.44c-.24-.19-.48-.4-.69-.63-1.86-2.08-1.65-5.35.48-7.32,8.59-7.93,16.72-16.22,24.15-24.64,1.92-2.17,5.16-2.41,7.23-.57,2.08,1.86,2.21,5.12.29,7.3-7.67,8.69-16.06,17.25-24.92,25.43-1.88,1.74-4.64,1.87-6.54.43ZM1230.42,500.84c-2.15-1.62-2.6-4.73-.98-7.05,6.64-9.55,12.62-19.44,17.78-29.38,1.33-2.57,4.43-3.64,6.93-2.39,2.49,1.24,3.44,4.35,2.11,6.92-5.37,10.36-11.6,20.66-18.51,30.59-1.65,2.38-4.85,3.02-7.15,1.44-.06-.04-.12-.08-.17-.12ZM1262.44,438.75c-1.68-1.27-2.41-3.57-1.66-5.74,1.97-5.63,3.73-11.39,5.23-17.12,1.35-5.13,2.51-10.43,3.45-15.73.5-2.83,3.16-4.8,5.95-4.4,2.78.4,4.63,3.02,4.13,5.85-.99,5.59-2.21,11.18-3.64,16.59-1.58,6-3.42,12.03-5.48,17.93-.95,2.73-3.88,4.24-6.54,3.38-.54-.17-1.02-.43-1.44-.75ZM1021.92,201.16c-.41-.31-.78-.69-1.09-1.15-1.57-2.31-.95-5.55,1.4-7.23,9.56-6.84,20.36-12.45,32.09-16.69,2.69-.97,5.58.42,6.44,3.11.86,2.69-.62,5.65-3.32,6.63-10.82,3.9-20.74,9.06-29.51,15.33-1.89,1.35-4.32,1.28-6.02,0ZM1274.54,370.56c-1.21-.91-1.98-2.38-1.96-4.05.13-11.17-.62-22.47-2.24-33.57-.41-2.81,1.53-5.51,4.33-6.03,2.8-.52,5.4,1.34,5.81,4.15,1.69,11.64,2.48,23.47,2.34,35.19-.03,2.86-2.35,5.23-5.18,5.31-1.17.03-2.25-.34-3.1-.99ZM1086.27,177.35c-1.09-.82-1.83-2.1-1.94-3.59-.22-2.84,1.89-5.41,4.71-5.73,11.6-1.35,23.46-1.47,35.23-.36,2.8.27,4.78,2.78,4.41,5.63-.37,2.85-2.94,4.94-5.74,4.67-11.08-1.04-22.22-.93-33.11.34-1.33.15-2.59-.22-3.56-.96ZM1264.7,302.77c-.79-.6-1.4-1.44-1.72-2.47-3.31-10.69-7.48-21.06-12.38-30.84-1.26-2.51-.22-5.65,2.31-7.02,2.53-1.37,5.6-.44,6.86,2.07,5.14,10.26,9.51,21.15,12.99,32.36.84,2.7-.68,5.65-3.38,6.6-1.67.59-3.4.27-4.68-.7ZM1153.73,183.67c-1.67-1.26-2.4-3.53-1.67-5.7.93-2.73,3.84-4.27,6.52-3.44,11.27,3.52,22.01,8.22,31.92,13.98,2.43,1.41,3.17,4.56,1.69,7.05-1.48,2.49-4.63,3.38-7.04,1.97-9.28-5.39-19.35-9.8-29.92-13.1-.55-.17-1.05-.43-1.49-.76ZM1234.29,242.32c-.36-.27-.69-.6-.97-.98-6.61-8.87-14-17.06-21.97-24.35-2.06-1.88-2.15-5.15-.21-7.3,1.94-2.15,5.23-2.34,7.24-.49,8.43,7.71,16.23,16.36,23.21,25.72,1.67,2.24,1.17,5.49-1.11,7.27-1.9,1.47-4.43,1.46-6.19.13Z"/>
        <path class="cls-2" d="M988.1,241.02c-1.35-1.02-2.12-2.72-1.93-4.54.56-5.36.62-10.83.17-16.25-.23-2.84,1.86-5.41,4.68-5.76,2.59-.32,4.89,1.37,5.43,3.85,1.76-1.9,4.63-2.29,6.72-.81,2.27,1.61,2.75,4.83,1.07,7.19-3.19,4.48-6.01,9.27-8.38,14.23-1.1,2.29-3.63,3.52-6.02,2.92-.65-.16-1.24-.45-1.74-.84Z"/>
        <path class="cls-2" d="M1080.41,964.48h-.01c-8.8-6.71-17.62-13.63-26.23-20.6-2.17-1.75-2.45-5-.63-7.26,1.82-2.26,5.04-2.67,7.21-.91,8.54,6.9,17.29,13.77,26.01,20.41,2.22,1.69,2.59,4.93.84,7.23-1.75,2.3-4.96,2.81-7.18,1.13ZM1107.12,984.2c-2.18-1.65-2.6-4.8-.94-7.12,1.69-2.35,4.9-2.95,7.17-1.32,8.92,6.39,18.07,12.72,27.17,18.84,2.32,1.57,2.87,4.76,1.25,7.16-1.63,2.4-4.82,3.08-7.13,1.53-9.18-6.17-18.4-12.56-27.41-19-.03-.03-.07-.05-.1-.08ZM1028.78,922.73c-.08-.06-.16-.12-.24-.19-8.4-7.21-16.81-14.65-24.98-22.09-2.06-1.88-2.16-5.15-.23-7.3,1.94-2.16,5.18-2.37,7.24-.5,8.11,7.38,16.44,14.75,24.77,21.91,2.11,1.82,2.31,5.08.43,7.28-1.81,2.12-4.88,2.5-6.99.9ZM1162.24,1021.22c-2.07-1.57-2.58-4.55-1.1-6.87,1.56-2.44,4.73-3.22,7.09-1.73,9.29,5.85,18.8,11.63,28.25,17.18,2.41,1.42,3.15,4.57,1.66,7.06-1.49,2.48-4.64,3.35-7.05,1.94-9.54-5.61-19.13-11.44-28.5-17.34-.12-.08-.24-.16-.35-.24ZM979.68,878c-.16-.12-.31-.25-.45-.38-7.96-7.69-15.92-15.61-23.65-23.53-1.95-2-1.87-5.27.18-7.32,2.05-2.05,5.29-2.1,7.24-.09,7.67,7.86,15.56,15.71,23.45,23.33,2.01,1.94,2.02,5.21.02,7.31-1.85,1.95-4.78,2.21-6.79.68ZM1219.51,1054.88c-1.97-1.49-2.55-4.3-1.26-6.61,1.42-2.52,4.55-3.49,7-2.15,9.65,5.28,19.5,10.48,29.26,15.44,2.48,1.26,3.41,4.37,2.07,6.93-1.34,2.56-4.45,3.62-6.94,2.35-9.85-5.01-19.79-10.25-29.53-15.58-.21-.12-.41-.25-.6-.39ZM933.27,830.45c-.23-.17-.45-.37-.65-.59-7.52-8.18-15-16.55-22.24-24.9-1.83-2.11-1.56-5.38.6-7.31,2.16-1.93,5.38-1.78,7.22.33,7.18,8.28,14.59,16.59,22.05,24.69,1.89,2.05,1.71,5.33-.39,7.32-1.88,1.78-4.66,1.92-6.58.47ZM1278.78,1084.99c-1.87-1.42-2.52-4.05-1.4-6.33,1.27-2.6,4.35-3.75,6.87-2.56,9.96,4.68,20.12,9.25,30.19,13.6,2.55,1.09,3.68,4.14,2.48,6.77-1.19,2.64-4.24,3.87-6.8,2.77-10.16-4.39-20.42-9-30.47-13.72-.31-.15-.6-.32-.87-.53ZM889.72,780.19c-.3-.23-.59-.5-.84-.81-7.02-8.6-13.99-17.42-20.73-26.22-1.7-2.22-1.25-5.48,1.01-7.28,2.26-1.8,5.48-1.46,7.17.75,6.68,8.72,13.6,17.46,20.55,25.99,1.77,2.16,1.4,5.43-.8,7.3-1.89,1.6-4.53,1.65-6.36.27ZM1339.88,1111.35c-1.78-1.34-2.47-3.81-1.54-6.04,1.11-2.67,4.12-4,6.72-2.98,10.26,4.04,20.7,7.97,31.03,11.65,2.63.94,3.93,3.89,2.9,6.59-1.03,2.7-4,4.12-6.63,3.18-10.43-3.72-20.97-7.68-31.33-11.77-.42-.17-.81-.38-1.15-.65ZM849.22,727.36c-.38-.29-.72-.64-1.01-1.04-6.5-9.03-12.93-18.27-19.13-27.46-1.56-2.32-.92-5.55,1.43-7.22,2.36-1.67,5.54-1.14,7.1,1.18,6.14,9.11,12.52,18.26,18.96,27.21,1.63,2.27,1.08,5.52-1.22,7.25-1.89,1.43-4.39,1.39-6.12.08ZM811.98,672.09c-.46-.35-.86-.78-1.18-1.29-5.95-9.45-11.8-19.08-17.41-28.64-1.42-2.42-.58-5.61,1.86-7.14,2.45-1.52,5.58-.8,7,1.62,5.55,9.47,11.36,19.02,17.25,28.38,1.49,2.37.75,5.59-1.65,7.18-1.88,1.25-4.22,1.14-5.87-.1ZM778.22,614.5c-.54-.41-1-.93-1.34-1.56-5.34-9.82-10.58-19.83-15.57-29.76-1.26-2.51-.23-5.65,2.3-7.02,2.53-1.37,5.61-.45,6.87,2.06,4.94,9.83,10.13,19.74,15.43,29.47,1.34,2.46.41,5.64-2.08,7.08-1.85,1.08-4.04.9-5.6-.28ZM748.18,554.75c-.62-.47-1.13-1.09-1.48-1.85-4.7-10.17-9.28-20.53-13.61-30.79-1.09-2.59.13-5.67,2.74-6.87,2.61-1.2,5.61-.08,6.7,2.51,4.29,10.16,8.82,20.42,13.47,30.48,1.18,2.55.05,5.66-2.52,6.95-1.8.9-3.84.67-5.3-.44ZM722.14,493c-.7-.53-1.27-1.27-1.62-2.16-1.63-4.27-3.23-8.55-4.8-12.84-2.35-6.43-4.6-12.79-6.68-18.91-.91-2.67.53-5.66,3.21-6.68,2.68-1.02,5.58.32,6.49,2.99,2.06,6.05,4.28,12.33,6.6,18.69,1.55,4.24,3.14,8.48,4.75,12.7,1.01,2.63-.32,5.67-2.96,6.79-1.74.74-3.62.45-4.99-.58ZM700.62,429.35c-.81-.62-1.44-1.49-1.75-2.57-3.23-11.24-6.07-22.32-8.44-32.94-.62-2.76,1.12-5.59,3.88-6.32,2.76-.73,5.5.92,6.11,3.69,2.32,10.42,5.11,21.3,8.29,32.34.78,2.72-.79,5.64-3.51,6.53-1.64.54-3.33.21-4.58-.73ZM686.1,363.51c-.99-.75-1.7-1.89-1.9-3.24-1.7-11.64-2.86-23.14-3.45-34.17-.15-2.85,2.01-5.37,4.84-5.63,2.82-.26,5.24,1.83,5.39,4.68.57,10.72,1.7,21.9,3.35,33.23.41,2.81-1.53,5.51-4.32,6.03-1.45.27-2.84-.1-3.91-.9ZM682.7,295.82c-1.27-.96-2.05-2.53-1.95-4.29.66-11.79,2.05-23.42,4.12-34.57.53-2.83,3.21-4.77,5.98-4.35,2.78.43,4.6,3.06,4.08,5.89-1.99,10.71-3.33,21.88-3.96,33.23-.16,2.86-2.58,5.13-5.4,5.07-1.09-.02-2.08-.38-2.87-.99ZM695.64,228.81c-1.7-1.28-2.42-3.6-1.64-5.78,3.97-11.08,8.88-21.9,14.59-32.15,1.41-2.53,4.54-3.5,6.99-2.17,2.45,1.34,3.3,4.46,1.89,6.99-5.42,9.73-10.08,20.01-13.85,30.54-.97,2.72-3.92,4.21-6.57,3.32-.52-.17-.99-.42-1.4-.74ZM729.11,168.86s-.09-.07-.13-.1c-2.17-1.75-2.45-5.01-.63-7.26,7.54-9.36,15.85-17.92,24.69-25.46,2.2-1.88,5.43-1.64,7.2.51,1.78,2.16,1.43,5.42-.77,7.3-8.33,7.09-16.16,15.17-23.28,24-1.78,2.21-4.92,2.65-7.08,1.01ZM781.34,124.66c-.58-.43-1.06-1.01-1.41-1.7-1.27-2.51-.24-5.65,2.29-7.02,10.47-5.69,21.48-10.15,32.7-13.25,2.75-.76,5.51.86,6.16,3.61.65,2.76-1.05,5.6-3.8,6.37-10.45,2.89-20.71,7.05-30.47,12.35-1.83.99-3.95.79-5.46-.35ZM846.33,106.82c-1.22-.92-1.99-2.41-1.96-4.1.06-2.86,2.4-5.21,5.22-5.26,11.29-.19,22.9,1.14,34.49,3.96,2.72.66,4.32,3.45,3.56,6.23s-3.58,4.5-6.31,3.84c-10.77-2.62-21.52-3.85-31.96-3.68-1.16.02-2.21-.35-3.06-.99ZM979.9,191.31c-.64-.49-1.18-1.14-1.52-1.94-4.14-9.44-9.77-18.61-16.74-27.23-1.76-2.17-1.38-5.44.83-7.3,2.22-1.86,5.44-1.6,7.19.57,7.52,9.3,13.61,19.22,18.1,29.47,1.13,2.58-.06,5.67-2.65,6.91-1.79.85-3.78.6-5.21-.48ZM910.78,122.04c-1.9-1.44-2.53-4.13-1.36-6.42,1.32-2.58,4.41-3.67,6.92-2.43,10.22,5.04,19.96,11.18,28.9,18.23,2.19,1.72,2.52,4.97.73,7.25-1.77,2.25-4.94,2.72-7.13,1.07-.02-.02-.05-.04-.08-.06-8.42-6.62-17.57-12.4-27.19-17.15-.28-.14-.54-.3-.79-.48Z"/>
        <path class="cls-2" d="M1402.81,1133.82c-1.68-1.27-2.41-3.56-1.66-5.73.94-2.73,3.87-4.25,6.54-3.39,5.32,1.7,10.72,3.38,16.05,4.99,2.68.81,4.12,3.69,3.22,6.43-.9,2.74-3.8,4.31-6.48,3.5-5.38-1.62-10.83-3.32-16.21-5.04-.54-.17-1.03-.43-1.46-.75Z"/>
      </g>
    </g>
  </g>
</svg>