<svg width="314" height="75" viewBox="0 0 314 75" fill="none" xmlns="http://www.w3.org/2000/svg">
<path d="M29.686 38.7715C29.8102 39.213 29.9619 39.6752 30.1275 40.1512C30.2931 40.6065 30.5483 41.0619 30.9002 41.5034C31.2106 41.1722 31.4866 40.8273 31.728 40.4824C31.9626 40.1374 32.1765 39.7856 32.3627 39.4337C34.9015 34.708 37.0332 29.7685 38.7648 24.615C38.82 24.4357 38.8821 24.2149 38.958 23.9528C39.0822 23.4767 39.3788 23.3043 39.8411 23.4284C40.0066 23.4836 40.1584 23.525 40.3102 23.5388C40.4551 23.5595 40.5999 23.5871 40.7517 23.6216C41.3174 23.7527 41.5382 24.1114 41.414 24.6978C41.2622 25.2911 41.0966 25.8775 40.9173 26.4639C40.7517 27.0572 40.5654 27.6367 40.3654 28.2024C39.6479 30.2652 38.8614 32.3141 38.0198 34.3562C37.1712 36.3845 36.2675 38.3989 35.3154 40.3996C35.1292 40.7859 34.9291 41.1516 34.7083 41.5034C34.5014 41.869 34.2806 42.2278 34.046 42.5796C33.3631 43.3868 32.5007 43.8214 31.4521 43.8766C30.1275 43.9456 28.9547 43.7248 27.9475 43.2143C26.954 42.6969 26.1262 41.8414 25.4639 40.6479C24.5601 38.9025 23.7875 37.1295 23.1459 35.322C22.5181 33.5007 21.9869 31.6519 21.5453 29.7754C21.228 28.4715 20.952 27.1676 20.7175 25.8568C20.4967 24.553 20.3105 23.2491 20.1656 21.9383C20.0897 21.3726 20 21.0276 19.8896 20.9173C19.7792 20.8069 19.4205 20.7241 18.8134 20.6689C18.4409 20.6344 18.0752 20.5999 17.7096 20.5585C17.3371 20.524 16.9645 20.4964 16.5782 20.4757C16.0401 20.4068 15.7089 20.4137 15.5848 20.5033C15.4537 20.5792 15.295 20.8759 15.1156 21.3864C14.4326 23.2284 13.7773 25.0842 13.1564 26.9606C12.5493 28.8371 11.9422 30.7274 11.3351 32.6177C10.9832 33.7767 10.6314 34.9357 10.2864 36.0947C9.93461 37.2537 9.56897 38.4265 9.18263 39.5993C9.03086 40.1719 8.87908 40.6755 8.71351 41.1171C8.27199 42.2554 7.50622 42.5244 6.4231 41.9173C6.16094 41.7655 6.07126 41.5862 6.14715 41.3654C6.16094 41.1998 6.20234 41.0205 6.25753 40.8411C6.31272 40.6755 6.34721 40.4962 6.36791 40.3168C7.30615 37.1364 8.25819 33.9561 9.23782 30.7688C10.2313 27.5884 11.3213 24.4426 12.5217 21.3312C12.5562 21.2415 12.5907 21.138 12.6321 21.0276C12.6872 20.9173 12.7286 20.8069 12.77 20.6965C12.8942 20.3516 12.7493 20.1446 12.3285 20.0894C10.8384 19.8686 9.3758 19.8342 7.94084 19.979C6.51968 20.1101 5.13992 20.5792 3.80154 21.3864C3.63597 21.483 3.4704 21.5658 3.30483 21.6347C3.12545 21.7106 2.93919 21.8003 2.75292 21.9107C2.36658 22.097 2.00095 22.1798 1.6491 22.1591C1.28347 22.1453 0.90403 22.0694 0.517695 21.9383C-0.0480082 21.7934 -0.151491 21.4899 0.214147 21.0276C0.510797 20.6827 0.84884 20.3861 1.23517 20.1446C3.11166 18.7648 5.18821 18.006 7.47172 17.8542C8.33408 17.7852 9.19643 17.7576 10.0657 17.7714C10.9487 17.7921 11.8318 17.8818 12.7148 18.0474C13.4116 18.1439 13.8876 17.868 14.1498 17.2195C15.0673 14.7359 16.0263 12.2799 17.0197 9.85154C18.0269 7.42315 18.9652 4.96716 19.8344 2.48358C19.9586 2.17313 20.0552 1.86958 20.1104 1.57293C20.3656 0.820962 20.5657 0.372538 20.7175 0.220763C20.8831 0.0758876 21.3591 0 22.1524 0C22.9596 0 23.5115 0.0137968 23.8082 0.0275953C24.0979 0.0482923 24.2842 0.206966 24.3601 0.496716C24.4498 0.77267 24.5256 1.32458 24.5808 2.15244C24.8154 4.80159 25.05 7.44384 25.2707 10.0723C25.4915 12.687 25.7122 15.2878 25.933 17.8818C25.933 17.9922 25.9399 18.1025 25.9606 18.2129C25.9951 18.3233 26.0158 18.4475 26.0158 18.5717C26.0503 19.165 26.4021 19.4754 27.0644 19.5099C27.7957 19.5099 28.5339 19.5306 29.272 19.5651C30.024 19.6065 30.7691 19.5858 31.5073 19.5099C31.7625 19.4754 32.0178 19.4547 32.2799 19.4547C32.5559 19.4547 32.818 19.5237 33.0802 19.6479C33.2458 19.7583 33.3837 19.8617 33.4941 19.9514C33.6045 20.048 33.6597 20.186 33.6597 20.3654C33.6597 20.5309 33.6045 20.662 33.4941 20.7517C33.3837 20.8276 33.2596 20.8897 33.1354 20.9449C32.9698 21.0414 32.7836 21.1035 32.5835 21.138C32.3765 21.1794 32.1765 21.207 31.9764 21.2208C31.2589 21.3519 30.5207 21.414 29.7688 21.414C29.0099 21.414 28.2786 21.4071 27.5611 21.3864C27.0092 21.3864 26.6781 21.4416 26.5677 21.552C26.4573 21.6623 26.4366 21.9866 26.5125 22.5178C26.8781 25.2635 27.2921 27.9955 27.7543 30.7136C28.2096 33.418 28.8581 36.1085 29.686 38.7715ZM19.2549 10.4586C18.7375 11.7694 18.2339 13.0664 17.7372 14.3496C17.2543 15.6397 16.7576 16.9297 16.247 18.2129C16.7231 18.4199 17.1715 18.5441 17.5992 18.5993C18.0407 18.6407 18.4616 18.6545 18.8686 18.6545C19.3101 18.6958 19.5654 18.6751 19.6413 18.5993C19.731 18.5096 19.7585 18.2267 19.7241 17.7438C19.6275 16.6952 19.5723 15.6397 19.5585 14.5703C19.5378 13.4872 19.5309 12.4041 19.5309 11.3141C19.5309 11.1899 19.5378 11.0519 19.5585 10.9002C19.5723 10.7346 19.4757 10.5897 19.2549 10.4586Z" fill="#946A49"/>
<path d="M64.5357 26.4639C64.9773 26.5743 65.2601 26.7054 65.3912 26.8502C65.5154 26.9813 65.5154 27.2642 65.3912 27.7057C64.8945 29.6581 64.2943 31.5552 63.5975 33.3903C62.8938 35.2323 62.0039 36.9777 60.9207 38.6334C60.4792 39.2957 60.017 39.8614 59.541 40.3168C58.858 40.9032 57.9956 41.2826 56.947 41.4482C55.8984 41.6137 54.9739 41.5034 54.1875 41.117C53.746 40.9308 53.3941 40.6617 53.1389 40.3168C52.8767 39.9718 52.6559 39.5648 52.4766 39.1026C52.1799 38.3851 51.9661 37.64 51.8419 36.8673C51.7315 36.0809 51.6556 35.2875 51.6211 34.4941C51.5245 32.8798 51.5383 31.2655 51.6487 29.665C51.7591 28.0506 51.8419 26.4294 51.8971 24.8082C51.9867 23.0628 51.8557 21.3174 51.5107 19.5651C51.4555 19.3098 51.3797 19.0339 51.29 18.7372C51.2141 18.4268 51.0002 18.2405 50.6553 18.1853C50.3379 18.1163 50.0827 18.1853 49.8826 18.4061C49.6963 18.613 49.5101 18.82 49.3307 19.0408C47.5094 21.3036 46.1296 23.8009 45.1914 26.5191C44.4187 28.7129 43.7426 30.9274 43.1769 33.1696C42.6043 35.4186 42.1076 37.6676 41.6868 39.9304C41.5764 40.5513 41.4522 40.9101 41.328 41.0066C41.197 41.117 40.8313 41.1791 40.2242 41.1998C40.0035 41.1998 39.7827 41.2067 39.5619 41.2274C39.3412 41.2412 39.1066 41.255 38.8721 41.255C38.1546 41.324 37.7131 41.2895 37.5475 41.1446C37.3681 40.9928 37.2301 40.5927 37.1336 39.9304C37.0094 39.1026 36.8783 38.2747 36.7472 37.4468C36.623 36.619 36.5403 35.7911 36.4989 34.9633C36.3747 31.9485 36.3885 28.9406 36.5541 25.9396C36.7058 22.9248 37.037 19.9238 37.5475 16.9435C37.5475 16.8193 37.5751 16.6882 37.6303 16.5572C37.6717 16.433 37.6855 16.3019 37.6855 16.1708C37.7545 15.5499 38.127 15.2464 38.7893 15.2602C39.5413 15.2602 40.3484 15.2533 41.2177 15.2326C41.7834 15.1981 42.1076 15.481 42.1835 16.088C42.1973 16.4951 42.2111 16.8538 42.2111 17.1643C42.2111 18.344 42.2111 19.5306 42.2111 20.7241C42.2111 21.9245 42.2111 23.1249 42.2111 24.3391C42.2111 24.5253 42.2111 24.7254 42.2111 24.9462C42.2111 25.1669 42.2111 25.4291 42.2111 25.7188C42.4664 25.5188 42.6319 25.3049 42.7078 25.0841C42.7975 24.8634 42.8872 24.6633 42.9838 24.477C43.4598 23.4836 43.9565 22.5178 44.4739 21.5795C45.0051 20.6413 45.6053 19.7513 46.2676 18.9028C46.8195 18.2267 47.4128 17.6541 48.0613 17.1919C48.7236 16.7158 49.4756 16.3778 50.3241 16.1708C52.2351 15.7293 53.677 16.364 54.6566 18.0749C54.9877 18.6475 55.2154 19.2546 55.3465 19.8962C55.4914 20.5447 55.6017 21.1794 55.6776 21.8003C55.7328 22.7247 55.7466 23.6423 55.7328 24.5598C55.7121 25.4843 55.6569 26.4087 55.5672 27.3469C55.4155 29.0579 55.3051 30.7826 55.2361 32.5073C55.1809 34.2389 55.3327 35.9705 55.7052 37.6952C55.7052 37.7918 55.7121 37.8746 55.7328 37.9436C55.7466 38.0194 55.7742 38.1091 55.8156 38.2195C55.9053 38.4955 55.9881 38.799 56.064 39.1302C56.1536 39.4475 56.3813 39.6269 56.7538 39.6821C57.0988 39.758 57.3954 39.6752 57.6369 39.4337C57.8715 39.1991 58.0922 38.9508 58.2992 38.6886C58.6096 38.3023 58.8925 37.8815 59.1546 37.4193C59.4099 36.9639 59.6652 36.5086 59.9273 36.0671C60.6448 34.6735 61.2864 33.2455 61.859 31.7898C62.4247 30.3203 62.9697 28.8371 63.4871 27.3469C63.5561 27.0917 63.6527 26.864 63.7631 26.6571C63.8734 26.4363 64.1287 26.3742 64.5357 26.4639Z" fill="#946A49"/>
<path d="M74.4396 28.9475C74.4396 28.8923 74.4258 28.8233 74.412 28.7267C74.412 28.6164 74.343 28.5336 74.2188 28.4784C74.0877 28.644 73.9843 28.8302 73.9153 29.0303C73.8601 29.2373 73.7842 29.4304 73.6945 29.6098C73.3634 30.479 73.0391 31.3207 72.7287 32.1486C72.4113 32.9764 72.0457 33.8043 71.6249 34.6321C71.2178 35.46 70.6935 36.1154 70.0519 36.5914C69.4241 37.0743 68.617 37.2537 67.6235 37.1433C66.5335 37.0536 65.5677 36.7846 64.726 36.3431C63.8982 35.9015 63.2704 35.122 62.8495 33.9974C62.4839 32.9902 62.3114 31.9554 62.3252 30.9068C62.3252 29.8581 62.4287 28.8095 62.6288 27.7609C62.9461 26.05 63.5946 24.4495 64.588 22.9593C65.5953 21.3243 66.8509 20.1101 68.341 19.3167C69.8312 18.5303 71.5007 18.068 73.3634 17.937C73.9843 17.8818 74.3706 17.799 74.5224 17.6886C74.6672 17.5782 74.7845 17.2195 74.8811 16.6124C75.0605 15.1222 75.2674 13.6321 75.4882 12.1419C75.709 10.638 76.0125 9.15474 76.3989 7.69908C76.4885 7.22307 76.6196 6.74704 76.7852 6.26413C76.9508 5.78811 77.1025 5.32588 77.2543 4.88436C77.4199 4.31865 77.7648 4.0289 78.3029 4.0289C78.8134 4.0289 79.3102 4.02201 79.7931 4.00131C80.2898 3.98751 80.7727 3.97371 81.2556 3.97371C81.8213 3.93922 82.1111 4.20827 82.1111 4.77398C82.0904 5.2569 82.0835 5.72602 82.0835 6.18134C82.0835 6.64356 82.0628 7.11268 82.0283 7.5887C81.7317 12.2109 81.4764 16.8331 81.2556 21.4692C81.0349 26.0914 80.9866 30.7136 81.1177 35.3496C81.1177 36.3293 81.1177 37.2951 81.1177 38.2471C81.1177 39.2061 81.1177 40.1788 81.1177 41.1722C81.1522 42.345 81.3108 43.5316 81.5868 44.732C81.6213 44.8562 81.6558 44.9666 81.6972 45.0632C81.7523 45.1736 81.8627 45.2288 82.0283 45.2288C82.118 45.2288 82.1801 45.1805 82.2215 45.0908C82.2767 45.0149 82.3388 44.939 82.4146 44.87C82.594 44.5527 82.7458 44.2353 82.8562 43.9042C82.9665 43.573 83.0838 43.2281 83.2149 42.8831C83.822 40.6893 84.4291 38.4955 85.0362 36.2879C85.6571 34.0664 86.278 31.8381 86.8851 29.6098C86.9196 29.5201 86.9472 29.4166 86.9679 29.3062C87.0024 29.1959 87.0369 29.0993 87.0783 29.0027C87.2024 28.6577 87.368 28.4439 87.575 28.368C87.7957 28.2783 88.1269 28.2852 88.5684 28.3956C88.9133 28.4508 89.0996 28.5888 89.1203 28.8095C89.1548 29.0303 89.1479 29.251 89.0927 29.4718C88.4856 31.776 87.8923 34.0526 87.3266 36.3155C86.754 38.5645 86.1676 40.8135 85.5605 43.0763C85.3949 43.642 85.2018 44.1939 84.981 44.732C84.7602 45.2839 84.5119 45.8083 84.2359 46.305C83.8496 46.9466 83.3046 47.3881 82.6078 47.6295C81.9041 47.8848 81.2004 47.94 80.483 47.7951C79.7655 47.664 79.1653 47.3122 78.6893 46.7465C78.3719 46.3947 78.1098 46.0014 77.889 45.5599C77.6682 45.1322 77.4751 44.7044 77.3095 44.2629C76.7369 42.828 76.2678 41.3723 75.9021 39.9029C75.5296 38.4334 75.2398 36.9364 75.0191 35.4048C74.8535 34.3562 74.7155 33.2938 74.6052 32.2038C74.4948 31.1206 74.4396 30.0375 74.4396 28.9475ZM67.0992 33.8595C67.0992 34.0802 67.1268 34.3148 67.182 34.5494C67.251 34.7701 67.4166 34.9564 67.6787 35.1013C68.0237 34.7563 68.2927 34.3769 68.479 33.9699C68.6791 33.549 68.8515 33.1144 69.0033 32.6729C69.776 30.6722 70.5624 28.6646 71.3765 26.6571C72.1837 24.6564 73.0046 22.6696 73.8325 20.6965C73.867 20.5516 73.9153 20.4067 73.9705 20.255C74.0257 20.1101 74.005 19.9652 73.9153 19.8134C73.8946 19.8134 73.8601 19.8065 73.8049 19.7858C73.7497 19.772 73.6945 19.7582 73.6393 19.7582C73.5427 19.7996 73.4186 19.8272 73.253 19.841C72.294 20.1032 71.4662 20.524 70.7694 21.1104C70.0657 21.7037 69.4724 22.4281 68.9757 23.2905C67.9823 24.9117 67.3476 26.6226 67.0716 28.4232C66.8095 30.21 66.8233 32.0244 67.0992 33.8595Z" fill="#946A49"/>
<path d="M101.854 26.4363C102.24 26.5881 102.42 26.7813 102.406 27.0158C102.385 27.2573 102.309 27.5056 102.185 27.7609C101.613 29.1062 101.033 30.4583 100.447 31.8174C99.8533 33.1834 99.26 34.5493 98.6529 35.9291C98.4667 36.3361 98.2735 36.7432 98.0734 37.1433C97.8872 37.5296 97.6871 37.9367 97.4663 38.3575C96.9282 39.2819 96.1762 39.9166 95.2035 40.2616C94.2239 40.6065 93.2304 40.6755 92.2232 40.4547C91.2091 40.234 90.3812 39.6959 89.7396 38.8266C89.3326 38.2954 89.0083 37.7228 88.7738 37.1157C88.5323 36.5086 88.3323 35.8877 88.1667 35.2392C87.9045 34.2665 87.7459 33.2731 87.67 32.2589C87.601 31.231 87.5734 30.2721 87.5872 29.389C87.5734 27.4228 87.6907 25.5395 87.9459 23.732C88.2219 21.9107 88.5944 20.1101 89.0773 18.3233C89.1118 18.1439 89.167 17.9576 89.2429 17.7714C89.3119 17.5713 89.3878 17.3712 89.4637 17.1643C89.6085 16.7228 89.9121 16.5227 90.3743 16.5572C90.464 16.5572 90.5399 16.5572 90.5951 16.5572C90.6641 16.5572 90.7331 16.5572 90.7882 16.5572C91.7403 16.5986 92.306 16.709 92.4716 16.8883C92.6509 17.0539 92.6992 17.5989 92.6095 18.5164C92.4785 20.4343 92.3474 22.3246 92.2232 24.2011C92.0921 26.0638 92.0645 27.9265 92.1404 29.8029C92.1542 30.8516 92.1818 31.9002 92.2232 32.9488C92.2577 33.9836 92.3681 35.0047 92.5544 36.0119C92.6233 36.4189 92.7199 36.8122 92.8303 37.1985C92.9545 37.5848 93.1201 37.9574 93.327 38.3023C93.7272 39.0405 94.1549 39.0681 94.5964 38.3851C94.7965 38.1505 94.962 37.8815 95.0931 37.5848C95.238 37.2951 95.3967 37.0053 95.5622 36.7294C96.3487 35.2047 97.1352 33.6663 97.9078 32.121C98.6943 30.5756 99.4877 29.0441 100.281 27.5125C100.316 27.4228 100.35 27.3401 100.391 27.2642C100.447 27.1952 100.488 27.0986 100.529 26.9882C100.75 26.5881 100.923 26.3673 101.054 26.3259C101.199 26.2707 101.468 26.3121 101.854 26.4363ZM91.8369 14.0184C90.5123 14.0598 89.8293 13.5355 89.7948 12.4455C89.7534 11.8591 89.9328 11.3555 90.3191 10.9277C90.7055 10.4862 91.1608 10.2654 91.6989 10.2654C92.3612 10.2654 92.8855 10.4241 93.2718 10.7346C93.672 11.0519 93.8789 11.5003 93.8789 12.0867C93.8789 13.3561 93.1959 14.0046 91.8369 14.0184Z" fill="#946A49"/>
<path d="M126.17 27.0434C126.612 27.2504 126.846 27.4159 126.888 27.5401C126.943 27.6505 126.874 27.9471 126.695 28.4232C125.77 30.5066 124.825 32.5556 123.852 34.5769C122.873 36.5845 121.865 38.592 120.817 40.5927C120.596 41.0342 120.334 41.4758 120.044 41.9173C119.768 42.3588 119.451 42.7727 119.106 43.1591C118.478 43.8559 117.712 44.2767 116.815 44.4285C115.932 44.5733 115.077 44.463 114.249 44.0973C113.421 43.7248 112.786 43.1315 112.345 42.3036C111.862 41.3792 111.503 40.4271 111.269 39.4337C111.027 38.4265 110.827 37.4123 110.662 36.3982C110.51 35.4462 110.413 34.4941 110.358 33.5559C110.317 32.6177 110.262 31.6725 110.193 30.7136C110.193 30.6239 110.193 30.5066 110.193 30.3548C110.193 30.21 110.11 30.0789 109.944 29.9685C109.703 30.4307 109.447 30.8929 109.171 31.3483C108.896 31.7898 108.62 32.252 108.344 32.728C108.081 33.1696 107.799 33.6042 107.488 34.025C107.192 34.432 106.867 34.8391 106.522 35.2392C105.819 35.9774 104.949 36.343 103.901 36.343C102.556 36.343 101.638 35.7359 101.141 34.5217C100.879 33.9353 100.686 33.3282 100.562 32.7004C100.438 32.0588 100.355 31.4173 100.313 30.7688C100.258 29.4097 100.334 28.0782 100.534 26.7674C100.714 25.4636 101.072 24.1942 101.61 22.9593C102.252 21.4898 103.101 20.248 104.149 19.2339C105.212 18.206 106.578 17.5368 108.233 17.2194C108.799 17.1298 109.344 17.1229 109.861 17.1919C110.393 17.247 110.938 17.3436 111.49 17.4678C111.8 17.523 112.159 17.4885 112.566 17.3574C113.207 17.1229 113.87 17.0125 114.553 17.0263C115.229 17.0263 115.912 17.047 116.595 17.0815C116.74 17.0815 116.843 17.1367 116.898 17.247C116.967 17.3574 117.022 17.4816 117.064 17.6058C117.153 17.9024 117.209 18.1991 117.229 18.4888C117.243 18.7855 117.257 19.0821 117.257 19.3719C117.216 21.9107 117.133 24.4494 117.009 26.9882C116.877 29.5132 116.74 32.0381 116.595 34.5769C116.519 35.5359 116.464 36.481 116.429 37.4192C116.408 38.3575 116.408 39.3095 116.429 40.2616C116.429 40.5168 116.443 40.7859 116.484 41.0618C116.519 41.3516 116.602 41.6413 116.733 41.9173C116.988 41.8207 117.181 41.6758 117.312 41.4758C117.457 41.2688 117.595 41.0894 117.726 40.9238C118.499 39.82 119.196 38.6748 119.823 37.4744C120.465 36.2809 121.093 35.0736 121.7 33.8594C122.231 32.8522 122.735 31.8312 123.218 30.7964C123.714 29.7684 124.218 28.7405 124.735 27.7057C124.991 27.209 125.184 26.933 125.315 26.8778C125.46 26.8088 125.742 26.864 126.17 27.0434ZM111.49 20.862C111.545 20.1859 111.386 19.703 111.02 19.4271C110.648 19.1373 110.151 19.0683 109.53 19.2339C109.268 19.3305 109.034 19.4478 108.813 19.5926C108.592 19.7444 108.378 19.91 108.178 20.0894C107.806 20.4412 107.474 20.8206 107.185 21.2208C106.909 21.6071 106.64 22.0141 106.384 22.435C105.425 23.9251 104.756 25.4912 104.37 27.1262C103.997 28.7681 103.797 30.4583 103.763 32.2037C103.763 32.3348 103.749 32.4728 103.735 32.6177C103.715 32.7487 103.721 32.8798 103.763 33.004C103.797 33.3006 103.777 33.6249 103.708 33.9698C103.652 34.3217 103.825 34.5424 104.232 34.6321C104.577 34.7287 104.846 34.6252 105.032 34.3286C105.232 34.0181 105.398 33.7353 105.529 33.4731C106.591 31.707 107.578 29.8995 108.482 28.0368C109.399 26.1603 110.275 24.2977 111.103 22.435C111.283 21.9589 111.414 21.4346 111.49 20.862Z" fill="#946A49"/>
<path d="M162.721 26.1328C163.011 26.2638 163.142 26.4225 163.107 26.6019C163.066 26.7675 163.025 26.9537 162.969 27.1538C162.362 28.6853 161.728 30.2031 161.065 31.707C160.417 33.2179 159.61 34.6321 158.637 35.9567C158.43 36.2189 158.23 36.4672 158.03 36.7018C157.823 36.9432 157.63 37.1709 157.45 37.3917C156.933 38.0402 156.278 38.4265 155.491 38.5507C154.698 38.6817 153.918 38.5921 153.145 38.2747C152.387 37.9436 151.8 37.3848 151.379 36.5914C150.993 35.8946 150.669 35.1771 150.414 34.439C150.172 33.7077 149.951 32.9626 149.751 32.2037C149.565 31.3414 149.406 30.479 149.282 29.6098C149.151 28.7267 149.041 27.8575 148.951 26.9882C148.854 26.3259 148.71 25.6843 148.509 25.0565C148.323 24.415 147.992 24.3115 147.516 24.753C147.033 25.2359 146.612 25.7602 146.247 26.3259C145.874 26.8778 145.557 27.4711 145.281 28.092C144.674 29.5822 144.136 31.093 143.68 32.6177C143.218 34.1285 142.832 35.6739 142.521 37.2537C142.39 37.916 142.287 38.3782 142.218 38.6335C142.163 38.8956 141.997 39.0336 141.721 39.0474C141.459 39.0681 140.948 39.0405 140.176 38.9646C139.603 38.9301 139.265 38.8542 139.155 38.7438C139.044 38.6335 138.989 38.2885 138.989 37.6952C138.989 36.3154 138.989 34.9288 138.989 33.5283C138.989 32.1348 138.989 30.7343 138.989 29.3338C138.989 27.8437 138.934 26.3466 138.824 24.8358C138.713 23.3318 138.479 21.8417 138.134 20.3653C138.037 19.9238 137.927 19.4961 137.802 19.0684C137.671 18.6268 137.499 18.206 137.278 17.799C136.85 17.0677 136.292 16.9573 135.595 17.4678C135.409 17.5989 135.236 17.7576 135.071 17.9369C134.919 18.1232 134.767 18.3164 134.601 18.5165C134.215 19.0546 133.87 19.6134 133.58 20.1998C133.304 20.7931 133.056 21.3864 132.835 21.9935C132.042 24.3529 131.318 26.7123 130.655 29.0855C130.007 31.4449 129.641 33.8802 129.551 36.3982C129.551 36.8398 129.51 37.2813 129.441 37.7228C129.386 38.1643 129.338 38.6197 129.303 39.075C129.262 39.5165 129.193 39.7925 129.082 39.9028C128.972 40.0132 128.696 40.0684 128.255 40.0684C127.606 40.1098 126.93 40.0891 126.212 40.0132C125.73 40.0132 125.426 39.958 125.302 39.8477C125.171 39.7373 125.067 39.4475 124.971 38.9646C124.805 38.1367 124.688 37.3089 124.612 36.481C124.543 35.6532 124.488 34.8253 124.446 33.9974C124.281 30.8516 124.295 27.7195 124.474 24.5874C124.64 21.4623 124.964 18.344 125.44 15.2326C125.474 15.1084 125.502 14.9842 125.523 14.8739C125.536 14.7635 125.557 14.6531 125.578 14.5427C125.667 13.8459 126.054 13.5148 126.737 13.5493C127.047 13.5493 127.351 13.5355 127.647 13.4941C127.958 13.4389 128.268 13.4113 128.586 13.4113C129.193 13.3768 129.551 13.4113 129.662 13.5217C129.772 13.6183 129.841 13.9563 129.883 14.5427C129.938 15.3154 129.979 16.0881 130.021 16.8607C130.055 17.6196 130.055 18.3716 130.021 19.1235C130.021 19.2201 130.021 19.3305 130.021 19.4547C130.021 19.5858 130.021 19.7513 130.021 19.9514C130.276 19.7858 130.448 19.6134 130.545 19.4271C130.635 19.227 130.745 19.0546 130.876 18.9028C131.318 18.2612 131.794 17.6748 132.311 17.1367C132.842 16.5848 133.456 16.1295 134.16 15.7569C135.595 14.9291 136.975 14.7497 138.299 15.205C139.624 15.6672 140.597 16.6607 141.224 18.1853C141.535 19.0132 141.776 19.841 141.942 20.6689C142.107 21.4967 142.218 22.3384 142.273 23.1801C142.342 23.8286 142.397 24.477 142.439 25.1393C142.494 25.7878 142.528 26.4363 142.549 27.0986C142.804 27.0089 142.977 26.8709 143.073 26.6847C143.184 26.4846 143.28 26.2983 143.377 26.1328C143.722 25.6016 144.08 25.0841 144.453 24.5874C144.839 24.0907 145.253 23.6216 145.695 23.1801C145.895 23.0352 146.088 22.8765 146.274 22.7109C146.474 22.5454 146.667 22.3936 146.854 22.2418C148.082 21.4347 149.213 21.2346 150.248 21.6347C151.297 22.0418 152 22.9455 152.373 24.3391C152.607 25.0565 152.773 25.7878 152.87 26.5191C152.959 27.2573 153.021 27.9955 153.063 28.7267C153.063 29.7409 153.118 30.755 153.228 31.7622C153.352 32.7556 153.504 33.7629 153.67 34.7701C153.739 35.1219 153.835 35.46 153.946 35.7911C154.07 36.1223 154.263 36.4189 154.525 36.6742C154.87 37.1019 155.257 37.1433 155.684 36.8122C155.919 36.6328 156.126 36.4258 156.291 36.2051C156.471 35.9843 156.65 35.7497 156.816 35.4876C157.602 34.3148 158.313 33.0868 158.941 31.8174C159.582 30.548 160.21 29.2786 160.817 28.0092C160.941 27.7885 161.065 27.5539 161.176 27.2918C161.286 27.0365 161.403 26.7813 161.534 26.5191C161.659 26.2431 161.824 26.0914 162.031 26.05C162.252 26.0155 162.48 26.0431 162.721 26.1328Z" fill="#946A49"/>
<path d="M172.489 26.8226C172.489 26.8226 172.407 26.8502 172.241 26.9054C172.241 27.002 172.241 27.0986 172.241 27.209C172.241 27.3055 172.255 27.3952 172.296 27.4849C172.717 29.0303 172.834 30.5687 172.655 32.0933C172.489 33.6042 172.103 35.0874 171.496 36.5362C170.834 38.1574 169.868 39.2888 168.598 39.9304C167.343 40.5513 165.873 40.6824 164.183 40.3168C163.3 40.0822 162.555 39.7028 161.948 39.1853C161.341 38.6541 160.851 38.0125 160.485 37.2537C160.03 36.3913 159.733 35.5083 159.602 34.6045C159.457 33.7077 159.409 32.797 159.464 31.8726C159.63 30.1824 159.961 28.5542 160.458 26.9882C160.954 25.4084 161.658 23.9182 162.583 22.5178C162.859 22.0762 163.162 21.6623 163.493 21.276C163.838 20.8758 164.218 20.5033 164.625 20.1722C165.356 19.6409 166.018 19.3719 166.612 19.3719C167.198 19.3719 167.84 19.634 168.543 20.1446C168.819 20.3653 169.095 20.5999 169.371 20.8344C169.647 21.0759 169.902 21.3174 170.144 21.5519C170.344 21.7589 170.537 21.959 170.723 22.159C170.923 22.3453 171.116 22.5316 171.303 22.7109C172.441 23.8906 173.69 24.7254 175.056 25.2221C176.435 25.705 177.953 25.7188 179.609 25.2773C179.844 25.2221 180.106 25.1807 180.382 25.1393C180.658 25.0841 180.92 25.0427 181.182 25.0013C181.403 24.9323 181.596 24.9323 181.761 25.0013C181.941 25.0565 182.065 25.2152 182.12 25.4705C182.244 25.9879 182.044 26.319 181.513 26.4639C180.168 26.795 178.816 27.0572 177.457 27.2366C176.111 27.4021 174.759 27.3193 173.4 26.9882C173.234 26.933 173.076 26.8985 172.931 26.8778C172.8 26.864 172.655 26.8433 172.489 26.8226ZM167.633 23.7044C167.536 23.5802 167.439 23.4491 167.329 23.318C167.232 23.1938 167.094 23.0973 166.915 23.0421C166.653 23.3387 166.446 23.6492 166.28 23.9803C166.129 24.3115 165.991 24.6564 165.866 25.0013C165.57 25.9258 165.328 26.864 165.149 27.8161C164.963 28.775 164.804 29.7201 164.68 30.6584C164.514 31.6932 164.438 32.7142 164.459 33.7215C164.473 34.7356 164.638 35.7566 164.956 36.7845C165.025 37.026 165.108 37.2744 165.204 37.5296C165.294 37.7918 165.432 38.0263 165.618 38.2471C166.129 38.9301 166.701 38.9784 167.329 38.3851C167.784 37.9849 168.171 37.4468 168.488 36.7845C169.571 34.5217 170.006 32.3072 169.785 30.1341C169.578 27.9471 168.861 25.8016 167.633 23.7044Z" fill="#946A49"/>
<path d="M220.437 38.7715C220.561 39.213 220.713 39.6752 220.878 40.1512C221.044 40.6065 221.299 41.0619 221.651 41.5034C221.962 41.1722 222.238 40.8273 222.479 40.4824C222.714 40.1374 222.927 39.7856 223.114 39.4337C225.652 34.708 227.784 29.7685 229.516 24.615C229.571 24.4357 229.633 24.2149 229.709 23.9528C229.833 23.4767 230.13 23.3043 230.592 23.4284C230.758 23.4836 230.909 23.525 231.061 23.5388C231.206 23.5595 231.351 23.5871 231.503 23.6216C232.068 23.7527 232.289 24.1114 232.165 24.6978C232.013 25.2911 231.848 25.8775 231.668 26.4639C231.503 27.0572 231.316 27.6367 231.116 28.2024C230.399 30.2652 229.612 32.3141 228.771 34.3562C227.922 36.3845 227.018 38.3989 226.066 40.3996C225.88 40.7859 225.68 41.1516 225.459 41.5034C225.252 41.869 225.032 42.2278 224.797 42.5796C224.114 43.3868 223.252 43.8214 222.203 43.8766C220.878 43.9456 219.706 43.7248 218.698 43.2143C217.705 42.6969 216.877 41.8414 216.215 40.6479C215.311 38.9025 214.538 37.1295 213.897 35.322C213.269 33.5007 212.738 31.6519 212.296 29.7754C211.979 28.4715 211.703 27.1676 211.468 25.8568C211.248 24.553 211.061 23.2491 210.917 21.9383C210.841 21.3726 210.751 21.0276 210.641 20.9173C210.53 20.8069 210.171 20.7241 209.564 20.6689C209.192 20.6344 208.826 20.5999 208.461 20.5585C208.088 20.524 207.715 20.4964 207.329 20.4757C206.791 20.4068 206.46 20.4137 206.336 20.5033C206.205 20.5792 206.046 20.8759 205.867 21.3864C205.184 23.2284 204.528 25.0842 203.907 26.9606C203.3 28.8371 202.693 30.7274 202.086 32.6177C201.734 33.7767 201.382 34.9357 201.037 36.0947C200.686 37.2537 200.32 38.4265 199.934 39.5993C199.782 40.1719 199.63 40.6755 199.464 41.1171C199.023 42.2554 198.257 42.5244 197.174 41.9173C196.912 41.7655 196.822 41.5862 196.898 41.3654C196.912 41.1998 196.953 41.0205 197.009 40.8411C197.064 40.6755 197.098 40.4962 197.119 40.3168C198.057 37.1364 199.009 33.9561 199.989 30.7688C200.982 27.5884 202.072 24.4426 203.273 21.3312C203.307 21.2415 203.342 21.138 203.383 21.0276C203.438 20.9173 203.48 20.8069 203.521 20.6965C203.645 20.3516 203.5 20.1446 203.079 20.0894C201.589 19.8686 200.127 19.8342 198.692 19.979C197.271 20.1101 195.891 20.5792 194.553 21.3864C194.387 21.483 194.221 21.5658 194.056 21.6347C193.876 21.7106 193.69 21.8003 193.504 21.9107C193.118 22.097 192.752 22.1798 192.4 22.1591C192.034 22.1453 191.655 22.0694 191.269 21.9383C190.703 21.7934 190.599 21.4899 190.965 21.0276C191.262 20.6827 191.6 20.3861 191.986 20.1446C193.863 18.7648 195.939 18.006 198.223 17.8542C199.085 17.7852 199.947 17.7576 200.817 17.7714C201.7 17.7921 202.583 17.8818 203.466 18.0474C204.163 18.1439 204.639 17.868 204.901 17.2195C205.818 14.7359 206.777 12.2799 207.771 9.85154C208.778 7.42315 209.716 4.96716 210.585 2.48358C210.71 2.17313 210.806 1.86958 210.861 1.57293C211.117 0.820962 211.317 0.372538 211.468 0.220763C211.634 0.0758876 212.11 0 212.903 0C213.711 0 214.262 0.0137968 214.559 0.0275953C214.849 0.0482923 215.035 0.206966 215.111 0.496716C215.201 0.77267 215.277 1.32458 215.332 2.15244C215.566 4.80159 215.801 7.44384 216.022 10.0723C216.242 12.687 216.463 15.2878 216.684 17.8818C216.684 17.9922 216.691 18.1025 216.712 18.2129C216.746 18.3233 216.767 18.4475 216.767 18.5717C216.801 19.165 217.153 19.4754 217.815 19.5099C218.547 19.5099 219.285 19.5306 220.023 19.5651C220.775 19.6065 221.52 19.5858 222.258 19.5099C222.513 19.4754 222.769 19.4547 223.031 19.4547C223.307 19.4547 223.569 19.5237 223.831 19.6479C223.997 19.7583 224.135 19.8617 224.245 19.9514C224.355 20.048 224.411 20.186 224.411 20.3654C224.411 20.5309 224.355 20.662 224.245 20.7517C224.135 20.8276 224.011 20.8897 223.886 20.9449C223.721 21.0414 223.535 21.1035 223.334 21.138C223.127 21.1794 222.927 21.207 222.727 21.2208C222.01 21.3519 221.272 21.414 220.52 21.414C219.761 21.414 219.03 21.4071 218.312 21.3864C217.76 21.3864 217.429 21.4416 217.319 21.552C217.208 21.6623 217.188 21.9866 217.263 22.5178C217.629 25.2635 218.043 27.9955 218.505 30.7136C218.961 33.418 219.609 36.1085 220.437 38.7715ZM210.006 10.4586C209.488 11.7694 208.985 13.0664 208.488 14.3496C208.005 15.6397 207.509 16.9297 206.998 18.2129C207.474 18.4199 207.922 18.5441 208.35 18.5993C208.792 18.6407 209.213 18.6545 209.62 18.6545C210.061 18.6958 210.316 18.6751 210.392 18.5993C210.482 18.5096 210.51 18.2267 210.475 17.7438C210.378 16.6952 210.323 15.6397 210.309 14.5703C210.289 13.4872 210.282 12.4041 210.282 11.3141C210.282 11.1899 210.289 11.0519 210.309 10.9002C210.323 10.7346 210.227 10.5897 210.006 10.4586Z" fill="#946A49"/>
<path d="M240.744 31.0447C240.703 30.9206 240.675 30.7688 240.661 30.6032C240.661 30.4238 240.558 30.1893 240.358 29.9133C240.137 30.7412 239.93 31.5139 239.751 32.2313C239.585 32.9488 239.406 33.6387 239.226 34.301C238.875 35.6118 238.509 36.8949 238.123 38.1643C237.736 39.4337 237.274 40.6755 236.743 41.8897C236.315 42.8279 235.832 43.4419 235.28 43.7386C234.728 44.0283 233.928 44.1111 232.879 43.987C231.865 43.8559 231.1 43.3109 230.589 42.3588C230.072 41.3102 229.658 40.2478 229.347 39.1578C229.03 38.054 228.795 36.9225 228.63 35.7635C228.23 32.8384 228.119 29.9271 228.299 27.0158C228.485 24.1114 228.92 21.2346 229.623 18.3785C229.658 18.2129 229.692 18.0611 229.734 17.9094C229.789 17.7645 229.851 17.6196 229.927 17.4678C230.051 16.8607 230.43 16.5572 231.058 16.5572C231.313 16.5572 231.562 16.5503 231.803 16.5296C232.038 16.5158 232.286 16.502 232.548 16.502C233.169 16.4882 233.576 16.571 233.762 16.7503C233.963 16.9366 234.038 17.3299 233.983 17.9369C233.942 18.7303 233.88 19.5237 233.79 20.3101C233.714 21.0828 233.666 21.8693 233.652 22.6558C233.542 25.2359 233.487 27.8161 233.487 30.41C233.487 33.004 233.68 35.5911 234.066 38.1643C234.135 38.4403 234.19 38.7645 234.232 39.1302C234.287 39.5027 234.466 39.7028 234.784 39.7373C235.17 39.7787 235.391 39.6131 235.446 39.2406C235.515 38.8749 235.584 38.5438 235.639 38.2471C236.536 35.1771 237.412 32.0934 238.261 29.0027C239.123 25.8982 239.868 22.7661 240.496 19.6203C240.606 19.1097 240.723 18.7924 240.854 18.682C240.999 18.5716 241.31 18.5027 241.793 18.4613C242.655 18.4268 243.29 18.4613 243.697 18.5716C244.118 18.682 244.394 18.9442 244.525 19.3443C244.67 19.7513 244.78 20.3791 244.856 21.2208C245.035 23.7044 245.38 26.1604 245.877 28.5888C246.374 31.0033 246.953 33.3903 247.615 35.7635C247.705 36.1154 247.822 36.4741 247.974 36.8398C248.119 37.2123 248.257 37.571 248.388 37.916C248.498 38.1781 248.636 38.4334 248.802 38.6886C248.968 38.9508 249.223 39.0612 249.575 39.0198C249.92 39.0198 250.189 38.9232 250.375 38.7162C250.575 38.4955 250.734 38.2471 250.844 37.9712C251.01 37.6262 251.175 37.2675 251.341 36.8949C251.52 36.5293 251.679 36.1499 251.81 35.7635C252.251 34.439 252.61 33.1006 252.886 31.7346C253.162 30.3549 253.355 28.9682 253.466 27.5677C253.535 26.8364 253.286 26.2156 252.72 25.7188C251.63 24.6702 250.72 23.5112 249.989 22.2418C249.271 20.9724 248.747 19.5789 248.416 18.0473C248.319 17.4609 248.278 16.8814 248.278 16.3088C248.278 15.7431 248.367 15.1705 248.554 14.5979C248.899 13.5493 249.554 12.7904 250.513 12.3075C251.244 11.9212 251.982 11.8522 252.72 12.0867C253.452 12.3282 254.052 12.818 254.514 13.5493C254.901 14.1978 255.204 14.867 255.425 15.5637C255.646 16.2674 255.818 16.9918 255.949 17.7438C256.115 18.7372 256.232 19.7444 256.308 20.7517C256.398 21.7451 256.446 22.7523 256.446 23.7596C256.446 24.4977 256.542 25.0221 256.749 25.3325C256.949 25.6292 257.384 25.8292 258.046 25.9396C258.909 26.1466 259.785 26.2983 260.668 26.4087C261.565 26.5191 262.475 26.5122 263.4 26.3811C263.49 26.3811 263.593 26.3742 263.703 26.3535C263.814 26.3397 263.931 26.3259 264.062 26.3259C264.317 26.3121 264.545 26.3259 264.752 26.3811C264.952 26.4225 265.069 26.6226 265.111 26.9882C265.145 27.4159 265.111 27.7195 265 27.8989C264.89 28.0644 264.642 28.1748 264.255 28.23C263.372 28.3611 262.489 28.4232 261.606 28.4232C260.737 28.4094 259.875 28.3128 259.012 28.1472C258.66 28.0782 258.322 28.023 257.991 27.9817C257.66 27.9265 257.329 27.8713 256.998 27.8161C256.501 27.6919 256.211 27.9127 256.142 28.4784C256.011 29.2372 255.894 30.0099 255.784 30.7964C255.673 31.569 255.542 32.3417 255.397 33.1144C255.232 34.0388 255.018 34.9357 254.763 35.8187C254.5 36.7018 254.169 37.5572 253.769 38.3851C253.162 39.6407 252.293 40.5444 251.175 41.117C250.071 41.6827 248.899 41.869 247.671 41.6689C246.456 41.4827 245.353 40.9032 244.359 39.9304C243.821 39.3785 243.366 38.7714 242.979 38.1091C242.607 37.4469 242.276 36.7501 241.986 36.0119C241.669 35.2254 241.413 34.4114 241.213 33.5835C241.027 32.7556 240.868 31.914 240.744 31.0447ZM252.251 15.9501C252.141 16.7435 252.182 17.4885 252.389 18.1853C252.61 18.889 252.921 19.5651 253.328 20.2274C253.231 19.4961 253.141 18.7579 253.052 18.0197C252.955 17.2678 252.693 16.5779 252.251 15.9501Z" fill="#946A49"/>
<path d="M289.419 27.0434C289.861 27.2504 290.095 27.4159 290.137 27.5401C290.192 27.6505 290.123 27.9471 289.944 28.4232C289.019 30.5066 288.074 32.5556 287.101 34.5769C286.122 36.5845 285.114 38.592 284.066 40.5927C283.845 41.0342 283.583 41.4758 283.293 41.9173C283.017 42.3588 282.7 42.7727 282.355 43.1591C281.727 43.8559 280.961 44.2767 280.064 44.4285C279.181 44.5733 278.326 44.463 277.498 44.0973C276.67 43.7248 276.036 43.1315 275.594 42.3036C275.111 41.3792 274.752 40.4271 274.518 39.4337C274.276 38.4265 274.076 37.4123 273.911 36.3982C273.759 35.4462 273.662 34.4941 273.607 33.5559C273.566 32.6177 273.511 31.6725 273.442 30.7136C273.442 30.6239 273.442 30.5066 273.442 30.3548C273.442 30.21 273.359 30.0789 273.193 29.9685C272.952 30.4307 272.696 30.8929 272.421 31.3483C272.145 31.7898 271.869 32.252 271.593 32.728C271.331 33.1696 271.048 33.6042 270.737 34.025C270.441 34.432 270.116 34.8391 269.771 35.2392C269.068 35.9774 268.198 36.343 267.15 36.343C265.805 36.343 264.887 35.7359 264.39 34.5217C264.128 33.9353 263.935 33.3282 263.811 32.7004C263.687 32.0588 263.604 31.4173 263.562 30.7688C263.507 29.4097 263.583 28.0782 263.783 26.7674C263.963 25.4636 264.321 24.1942 264.859 22.9593C265.501 21.4898 266.35 20.248 267.398 19.2339C268.461 18.206 269.827 17.5368 271.482 17.2194C272.048 17.1298 272.593 17.1229 273.11 17.1919C273.642 17.247 274.187 17.3436 274.739 17.4678C275.049 17.523 275.408 17.4885 275.815 17.3574C276.456 17.1229 277.119 17.0125 277.802 17.0263C278.478 17.0263 279.161 17.047 279.844 17.0815C279.989 17.0815 280.092 17.1367 280.147 17.247C280.216 17.3574 280.271 17.4816 280.313 17.6058C280.402 17.9024 280.458 18.1991 280.478 18.4888C280.492 18.7855 280.506 19.0821 280.506 19.3719C280.465 21.9107 280.382 24.4494 280.258 26.9882C280.127 29.5132 279.989 32.0381 279.844 34.5769C279.768 35.5359 279.713 36.481 279.678 37.4192C279.657 38.3575 279.657 39.3095 279.678 40.2616C279.678 40.5168 279.692 40.7859 279.733 41.0618C279.768 41.3516 279.851 41.6413 279.982 41.9173C280.237 41.8207 280.43 41.6758 280.561 41.4758C280.706 41.2688 280.844 41.0894 280.975 40.9238C281.748 39.82 282.445 38.6748 283.072 37.4744C283.714 36.2809 284.342 35.0736 284.949 33.8594C285.48 32.8522 285.984 31.8312 286.467 30.7964C286.963 29.7684 287.467 28.7405 287.984 27.7057C288.24 27.209 288.433 26.933 288.564 26.8778C288.709 26.8088 288.992 26.864 289.419 27.0434ZM274.739 20.862C274.794 20.1859 274.635 19.703 274.269 19.4271C273.897 19.1373 273.4 19.0683 272.779 19.2339C272.517 19.3305 272.283 19.4478 272.062 19.5926C271.841 19.7444 271.627 19.91 271.427 20.0894C271.055 20.4412 270.723 20.8206 270.434 21.2208C270.158 21.6071 269.889 22.0141 269.633 22.435C268.674 23.9251 268.005 25.4912 267.619 27.1262C267.246 28.7681 267.046 30.4583 267.012 32.2037C267.012 32.3348 266.998 32.4728 266.984 32.6177C266.964 32.7487 266.97 32.8798 267.012 33.004C267.046 33.3006 267.026 33.6249 266.957 33.9698C266.901 34.3217 267.074 34.5424 267.481 34.6321C267.826 34.7287 268.095 34.6252 268.281 34.3286C268.481 34.0181 268.647 33.7353 268.778 33.4731C269.84 31.707 270.827 29.8995 271.731 28.0368C272.648 26.1603 273.524 24.2977 274.352 22.435C274.532 21.9589 274.663 21.4346 274.739 20.862Z" fill="#946A49"/>
<path d="M307.15 28.092C307.15 28.3887 307.15 28.6922 307.15 29.0027C307.15 29.32 307.15 29.6856 307.15 30.1065C307.847 29.6649 308.474 29.1889 309.026 28.6715C309.578 28.1403 310.109 27.616 310.627 27.0986C310.937 26.7881 311.241 26.457 311.538 26.1051C311.848 25.7602 312.158 25.4153 312.476 25.0841C312.586 24.9599 312.703 24.8358 312.835 24.7254C312.979 24.615 313.138 24.6633 313.304 24.8634C313.449 25.0841 313.621 25.3187 313.828 25.5532C314.049 25.7947 314.056 26.0982 313.856 26.4639C313.759 26.6295 313.662 26.7812 313.552 26.9054C313.442 27.0365 313.317 27.1814 313.193 27.3469C312.4 28.3611 311.544 29.32 310.627 30.2169C309.702 31.1206 308.702 31.9209 307.619 32.6176C307.102 32.9695 306.798 33.5283 306.708 34.301C306.446 36.0533 306.108 37.7642 305.687 39.4337C305.26 41.0894 304.68 42.7175 303.949 44.3181C303.542 45.2356 303.073 46.1118 302.541 46.9396C302.024 47.7813 301.424 48.5747 300.748 49.3128C299.603 50.527 298.361 51.3135 297.022 51.686C295.698 52.0724 294.29 52.0793 292.8 51.7136C291.324 51.3618 290.275 50.5684 289.654 49.3404C289.047 48.1055 288.965 46.6706 289.406 45.0355C289.585 44.2974 289.861 43.6006 290.234 42.9383C290.6 42.2898 291.007 41.6827 291.448 41.117C292.31 40.1098 293.242 39.206 294.235 38.4127C295.243 37.6055 296.291 36.888 297.381 36.2602C298.223 35.7497 299.106 35.253 300.03 34.7701C300.541 34.4941 300.831 34.0526 300.886 33.4455C301.01 31.9761 301.141 30.4928 301.272 29.0027C301.396 27.5125 301.548 26.0086 301.714 24.477C301.417 24.5736 301.231 24.7254 301.162 24.9461C301.086 25.1669 301.01 25.3601 300.941 25.5256C300.458 26.5743 299.954 27.6091 299.423 28.6163C298.906 29.6304 298.347 30.6032 297.74 31.5414C297.022 32.6866 296.174 33.4179 295.201 33.7491C294.221 34.0802 293.166 34.1216 292.028 33.8594C290.758 33.6042 289.82 32.797 289.213 31.431C288.861 30.6032 288.606 29.7477 288.44 28.8647C288.295 27.9678 288.219 27.071 288.219 26.1879C288.151 23.9251 288.213 21.6899 288.413 19.4823C288.633 17.2746 288.944 15.0808 289.351 12.887C289.516 12.0039 289.689 11.4796 289.875 11.314C290.075 11.1485 290.551 11.0381 291.31 10.9829C292.007 10.8932 292.752 10.7897 293.545 10.6793C294.187 10.6242 294.463 10.9484 294.373 11.6452C294.297 12.0867 294.221 12.542 294.152 12.9974C294.097 13.4389 294.042 13.8804 293.987 14.3219C293.725 16.3502 293.532 18.3784 293.407 20.4205C293.276 22.4626 293.256 24.5184 293.352 26.5743C293.352 27.1814 293.38 27.7885 293.435 28.3956C293.504 28.9889 293.642 29.5684 293.849 30.1341C294.194 31.0723 294.635 31.1551 295.174 30.3824C295.394 30.1065 295.594 29.8029 295.781 29.4718C295.981 29.1268 296.174 28.775 296.36 28.4232C297.533 26.3259 298.526 24.1597 299.34 21.9107C300.148 19.6478 300.982 17.385 301.852 15.1222C301.907 14.9428 301.962 14.7773 302.017 14.6255C302.086 14.4599 302.141 14.2805 302.183 14.0736C302.403 12.9905 303.011 12.4661 304.004 12.5006C304.39 12.5006 304.756 12.473 305.108 12.4179C305.473 12.3489 305.853 12.2937 306.239 12.2523C306.805 12.1626 307.129 12.4386 307.205 13.0801C307.219 13.3561 307.246 13.6252 307.288 13.8804C307.322 14.1426 307.343 14.3978 307.343 14.6531C307.398 16.9159 307.412 19.1718 307.398 21.4139C307.378 23.6423 307.295 25.8706 307.15 28.092ZM300.196 37.7228C300.196 37.7228 300.141 37.6124 300.03 37.3916C299.147 37.9435 298.292 38.5368 297.464 39.1577C296.636 39.7648 295.87 40.4616 295.174 41.255C294.29 42.2484 293.628 43.3936 293.187 44.7044C292.98 45.2356 292.862 45.7668 292.828 46.3049C292.807 46.8568 292.89 47.395 293.076 47.9331C293.332 48.7954 293.766 49.3128 294.373 49.4784C294.98 49.6578 295.574 49.4784 296.167 48.9265C296.367 48.7402 296.553 48.5402 296.719 48.3194C296.898 48.0986 297.057 47.8572 297.188 47.6019C298.016 46.0704 298.651 44.4698 299.092 42.8003C299.534 41.1446 299.899 39.4544 300.196 37.7228Z" fill="#946A49"/>
<path d="M30.4559 65.9388H27.31V74.3278H25.6543V65.9388H22.536V64.4487H30.4559V65.9388Z" fill="#946A49"/>
<path d="M40.5137 74.3278L38.72 71.3199C38.6234 71.3406 38.4785 71.3475 38.2784 71.3475H35.9328V74.3278H34.2495V64.4487H38.2784C39.5271 64.4487 40.4999 64.7453 41.2035 65.3317C41.9003 65.925 42.2522 66.7529 42.2522 67.8153C42.2522 68.6087 42.0659 69.2779 41.7003 69.8298C41.3484 70.3679 40.8517 70.7611 40.2101 71.0164L42.4177 74.3278H40.5137ZM35.9328 69.8574H38.2784C39.879 69.8574 40.6792 69.1951 40.6792 67.8705C40.6792 66.5873 39.879 65.9388 38.2784 65.9388H35.9328V69.8574Z" fill="#946A49"/>
<path d="M53.2405 72.0926H48.2457L47.2799 74.3278H45.569L49.929 64.4487H51.6399L55.9448 74.3278H54.1787L53.2405 72.0926ZM52.5782 70.6024L50.7293 66.2148L48.8528 70.6024H52.5782Z" fill="#946A49"/>
<path d="M64.0546 74.3278H62.3161L58.3976 64.4487H60.1913L63.2268 72.4789L66.3174 64.4487H68.056L64.0546 74.3278Z" fill="#946A49"/>
<path d="M78.8265 65.9388H73.4454V68.6156H78.2746V70.1057H73.4454V72.8377H78.9921V74.3278H71.7621V64.4487H78.8265V65.9388Z" fill="#946A49"/>
<path d="M85.0876 72.8101H89.3649V74.3278H83.4043V64.4487H85.0876V72.8101Z" fill="#946A49"/>
<path d="M99.3419 64.4487H103.647C104.675 64.4487 105.482 64.6694 106.075 65.111C106.662 65.5387 106.958 66.132 106.958 66.9047C106.958 67.4566 106.8 67.9395 106.489 68.3396C106.172 68.726 105.751 68.9881 105.22 69.1123C105.882 69.2227 106.393 69.4986 106.765 69.9401C107.151 70.3817 107.345 70.9474 107.345 71.6235C107.345 72.472 107.02 73.1343 106.379 73.6103C105.73 74.0932 104.847 74.3278 103.73 74.3278H99.3419V64.4487ZM101.025 65.9112V68.5328H103.564C104.075 68.5328 104.482 68.4155 104.778 68.174C105.089 67.9395 105.247 67.6152 105.247 67.2082C105.247 66.7874 105.096 66.4631 104.806 66.2424C104.509 66.0216 104.095 65.9112 103.564 65.9112H101.025ZM101.025 69.9953V72.8377H103.564C104.226 72.8377 104.73 72.7204 105.082 72.4789C105.447 72.2237 105.634 71.8649 105.634 71.4027C105.634 70.9612 105.447 70.6231 105.082 70.3817C104.709 70.1264 104.206 69.9953 103.564 69.9953H101.025Z" fill="#946A49"/>
<path d="M115.747 71.044V74.3278H114.092V71.0992L110.421 64.4487H112.077L114.919 69.2503L117.679 64.4487H119.39L115.747 71.044Z" fill="#946A49"/>
<path d="M135.679 74.3278L132.423 69.9677L130.767 71.8166V74.3278H129.084V64.4487H130.767V69.5538L135.486 64.4487H137.445L133.609 68.6708L137.693 74.3278H135.679Z" fill="#946A49"/>
<path d="M148.004 72.0926H143.009L142.044 74.3278H140.333L144.693 64.4487H146.404L150.708 74.3278H148.942L148.004 72.0926ZM147.342 70.6024L145.493 66.2148L143.616 70.6024H147.342Z" fill="#946A49"/>
<path d="M161.164 65.9388H158.018V74.3278H156.362V65.9388H153.244V64.4487H161.164V65.9388Z" fill="#946A49"/>
<path d="M173.539 74.3278H171.856V70.2437H166.641V74.3278H164.957V64.4487H166.641V68.726H171.856V64.4487H173.539V74.3278Z" fill="#946A49"/>
<path d="M182.564 71.044V74.3278H180.908V71.0992L177.238 64.4487H178.894L181.736 69.2503L184.495 64.4487H186.206L182.564 71.044Z" fill="#946A49"/>
<path d="M204.482 74.3278H202.826L197.583 67.2358V74.3278H195.9V64.4487H197.528L202.826 71.5407V64.4487H204.482V74.3278Z" fill="#946A49"/>
<path d="M216.528 65.9388H211.147V68.6156H215.976V70.1057H211.147V72.8377H216.694V74.3278H209.464V64.4487H216.528V65.9388Z" fill="#946A49"/>
<path d="M227.37 74.3278L225.577 71.3199C225.48 71.3406 225.335 71.3475 225.135 71.3475H222.79V74.3278H221.106V64.4487H225.135C226.384 64.4487 227.357 64.7453 228.06 65.3317C228.757 65.925 229.109 66.7529 229.109 67.8153C229.109 68.6087 228.923 69.2779 228.557 69.8298C228.205 70.3679 227.709 70.7611 227.067 71.0164L229.275 74.3278H227.37ZM222.79 69.8574H225.135C226.736 69.8574 227.536 69.1951 227.536 67.8705C227.536 66.5873 226.736 65.9388 225.135 65.9388H222.79V69.8574Z" fill="#946A49"/>
<path d="M238.111 74.3278H236.372L232.454 64.4487H234.247L237.283 72.4789L240.373 64.4487H242.112L238.111 74.3278Z" fill="#946A49"/>
<path d="M252.882 65.9388H247.501V68.6156H252.33V70.1057H247.501V72.8377H253.048V74.3278H245.818V64.4487H252.882V65.9388Z" fill="#946A49"/>
<path d="M264.221 69.471H265.684V73.1136C265.166 73.5 264.559 73.8173 263.862 74.0519C263.179 74.2933 262.51 74.4106 261.848 74.4106C260.371 74.4106 259.13 73.9346 258.122 72.9756C257.129 72.0029 256.632 70.8094 256.632 69.3882C256.632 67.974 257.136 66.7874 258.15 65.8284C259.178 64.8764 260.44 64.3935 261.931 64.3935C262.627 64.3935 263.317 64.5246 264 64.7798C264.676 65.0213 265.256 65.3524 265.739 65.7733L264.801 67.015C263.986 66.2631 263.034 65.8836 261.931 65.8836C260.937 65.8836 260.089 66.2286 259.392 66.9047C258.688 67.5877 258.343 68.4155 258.343 69.3882C258.343 70.3817 258.688 71.2233 259.392 71.8994C260.089 72.5617 260.944 72.8929 261.958 72.8929C262.71 72.8929 263.462 72.6721 264.221 72.2306V69.471Z" fill="#946A49"/>
<path d="M278.999 74.3278H277.343L272.1 67.2358V74.3278H270.417V64.4487H272.045L277.343 71.5407V64.4487H278.999V74.3278Z" fill="#946A49"/>
<path d="M290.382 72.0926H285.388L284.422 74.3278H282.711L287.071 64.4487H288.782L293.087 74.3278H291.321L290.382 72.0926ZM289.72 70.6024L287.871 66.2148L285.995 70.6024H289.72Z" fill="#946A49"/>
</svg>
